<svg id="eVm3ANJZGLf2" xmlns="http://www.w3.org/2000/svg" xmlns:xlink="http://www.w3.org/1999/xlink" viewBox="0 0 200 100" shape-rendering="geometricPrecision" text-rendering="geometricPrecision"><path d="" fill="none" stroke="#3f5787" stroke-width="0.6"/><path d="M54.936902,150c36.69148-10.309807,122.375342-9.982547,170.156705,0c6.432863-15.570588,24.907384-45.769689-7.744665-58.252869-26.834954-28.776459-53.448207-23.573855-51.340322-7.618772-9.908429-13.855111-47.102966-27.270796-65.644177-7.52795C86.516119,62.25734,62.279451,67.040963,67.667361,91.747131c-33.315338,7.54032-17.999854,21.344857-16.730459,27.458309-12.350221,5.889427-6.501058,23.67756-2,32.79456Z" transform="translate(-41.89496-55.372106)" fill="#fff" stroke="#d8dee9" stroke-width="4"/><path d="M84.859263,122.309415c1.671942,16.313932,42.789731,17.739214,63.059313,6.035381" transform="translate(-42.114206-90.423879)" fill="none" stroke="#d8dee9" stroke-width="4"/><path d="M119.826077,136.776022c16.609078,12.421674,83.191348-0.938424,92.114464-17.038323" transform="translate(-35.457711-69.09444)" fill="none" stroke="#d8dee9" stroke-width="4"/></svg>
