<svg id="e9R7LEh4kZJ1" xmlns="http://www.w3.org/2000/svg" xmlns:xlink="http://www.w3.org/1999/xlink" viewBox="0 0 200 100" shape-rendering="geometricPrecision" text-rendering="geometricPrecision"><path d="" fill="none" stroke="#3f5787" stroke-width="0.6"/><path d="M54.936902,150c36.207468-4.985673,121.84485-4.147128,170.156705,0c2.457933-23.345452-.140445-57.568702-27.04202-58.889197-16.265309-15.427621-34.274627-16.531593-42.643186,4.99237c1.669427-26.847102-20.850229-32.129723-41.811122-20.801557-15.258556-7.956875-30.819548,3.103879-32.450423,20.801557-12.349415,1.005689-26.777571,9.787879-20.801553,26.625987C49.995082,126.618587,50.435844,140.883,54.936902,150Z" transform="translate(-38.866112-59.861595)" fill="#fff" stroke="#d8dee9" stroke-width="4"/><path d="M82.394952,144.362779c3.158197,9.443224,24.677413,9.21782,42.435169.416031" transform="translate(-40.114206-92.423879)" fill="none" stroke="#d8dee9" stroke-width="4"/><path d="M150,133.962005c15.609078,11.421674,40.376567,17.099899,49.299683,0" transform="translate(-33.457711-71.09444)" fill="none" stroke="#d8dee9" stroke-width="4"/></svg>