<svg id="eO2VQBnb0Zv1" xmlns="http://www.w3.org/2000/svg" xmlns:xlink="http://www.w3.org/1999/xlink" viewBox="0 0 200 100" shape-rendering="geometricPrecision" text-rendering="geometricPrecision"><path d="" fill="none" stroke="#3f5787" stroke-width="0.6"/><path d="M54.936902,150c36.207468-4.985673,121.84485-4.147128,170.156705,0-.978075-19.785468,5.087116-30.851401-21.033829-35.078597-.435713-1.304528-3.788353-24.099047-27.874081-9.152684-2.806909-18.004309-4.888194-32.644393-36.194703-14.977118-13.009123-20.795468-39.264519-12.692332-39.522951,14.977118-12.401096-6.749727-34.694352-7.611778-30.7863,20.769952C54.967413,116.158721,47.647186,130.691166,54.936902,150Z" transform="translate(-39.290675-69.990048)" fill="#fff" stroke="#d8dee9" stroke-width="4"/><path d="M72.585424,136.341481c3.309804,8.765523,14.225487,19.684889,36.194703,9.173909" transform="translate(13.553808-111.767625)" fill="none" stroke="#d8dee9" stroke-width="4"/><path d="M150,133.962005c9.171633,5.412303,12.491933,17.401685,32.215768,2.496187" transform="translate(-99.820816-75.668407)" fill="none" stroke="#d8dee9" stroke-width="4"/><path d="M150,133.962005c8.898102,5.21248,10.496469,22.082219,32.215768,2.496187" transform="translate(-9.152684-75.252374)" fill="none" stroke="#d8dee9" stroke-width="4"/></svg>