<svg id="e9R7LEh4kZJ2" xmlns="http://www.w3.org/2000/svg" xmlns:xlink="http://www.w3.org/1999/xlink" viewBox="0 0 200 100" shape-rendering="geometricPrecision" text-rendering="geometricPrecision"><path d="" fill="none" stroke="#3f5787" stroke-width="0.6"/><path d="M54.936902,150c36.207468-4.985673,121.84485-4.147128,170.156705,0c3.457933-25.345452,1.859555-55.568702-25.04202-56.889197-18.265309-13.427621-36.274627-14.531593-44.643186,6.99237c0.669427-28.847102-22.850229-30.129723-43.811122-18.801557-17.258556-6.956875-32.819548,4.103879-34.450423,22.801557-14.349415,2.005689-28.777571,11.787879-22.801553,28.625987C42.995082,128.618587,48.435844,140.883,54.936902,150Z" transform="translate(-38.866112-59.861595)" fill="#fff" stroke="#d8dee9" stroke-width="4"/><path d="M82.394952,144.362779c3.158197,9.443224,24.677413,9.21782,42.435169.416031" transform="translate(-42.114206-90.423879)" fill="none" stroke="#d8dee9" stroke-width="4"/><path d="M150,133.962005c16.609078,12.421674,42.376567,16.099899,51.299683,0" transform="translate(-35.457711-69.09444)" fill="none" stroke="#d8dee9" stroke-width="4"/></svg>
