<svg id="e2YVwAG01Xv2" xmlns="http://www.w3.org/2000/svg" xmlns:xlink="http://www.w3.org/1999/xlink" viewBox="0 0 200 100" shape-rendering="geometricPrecision" text-rendering="geometricPrecision"><path d="" fill="none" stroke="#3f5787" stroke-width="0.6"/><path d="M54.936902,150c36.207468-4.985673,121.84485-4.147128,170.156705,0-11.560036-24.376018-16.099168-17.490056-29.434607-17.115321-.435713-1.304528-12.44485-26.139327-36.530578-11.192964-19.743114-15.866908-14.932922-24.321428-38.194703-14.215094-9.086676-6.361296-14.99064-19.418032-27.793926,2-15.565428-3.585395-33.392859-1.292923-29.45805,27.06205C52.967413,118.158721,45.647186,130.691166,54.936902,150Z" transform="translate(-39.290674-69.990048)" fill="#fff" stroke="#d8dee9" stroke-width="4"/><path d="M72.585424,136.341481c3.309804,8.765523,14.225487,19.684889,36.194703,9.173909" transform="translate(29.698864-83.141636)" fill="none" stroke="#d8dee9" stroke-width="4"/><path d="M150,133.962005c10.171633,6.412303,14.491933,16.401685,34.215768,3.496187" transform="translate(-103.068909-74.084438)" fill="none" stroke="#d8dee9" stroke-width="4"/></svg>
