<svg id="eMujV6UYZrl2" xmlns="http://www.w3.org/2000/svg" xmlns:xlink="http://www.w3.org/1999/xlink" viewBox="0 0 200 100" shape-rendering="geometricPrecision" text-rendering="geometricPrecision"><path d="" fill="none" stroke="#3f5787" stroke-width="0.6"/><path d="M54.936902,150c36.207468-4.985673,121.84485-4.147128,170.156705,0c6.680457-22.212974,15.299501-39.600402-19.874423-45.285086-.435711-1.304528-17.021192-33.334005-41.10692-18.387642-26.244953-14.170776-36.686667,5.221079-42.530237,10.783531-12.622738-8.274784-30.854739-15.094137-40.099634,6.410551-25.254025,7.285516-18.854372,25.067225-6.335535,39.967144C60.432528,125.108547,45.647186,130.691166,54.936902,150Z" transform="translate(-38.866112-61.406807)" fill="#fff" stroke="#d8dee9" stroke-width="4"/><path d="M72.585424,136.341481c4.221119,23.310863,31.392323,32.796647,52.244697,8.437329" transform="translate(50.084386-87.717978)" fill="none" stroke="#d8dee9" stroke-width="4"/><path d="M150,133.962005c6.934832,14.180627,29.701265,18.404499,51.299683,0" transform="translate(-98.492568-68.769041)" fill="none" stroke="#d8dee9" stroke-width="4"/></svg>
