<svg id="eMujV6UYZrl1" xmlns="http://www.w3.org/2000/svg" xmlns:xlink="http://www.w3.org/1999/xlink" viewBox="0 0 200 100" shape-rendering="geometricPrecision" text-rendering="geometricPrecision"><path d="" fill="none" stroke="#3f5787" stroke-width="0.6"/><path d="M54.936902,150c36.207468-4.985673,121.84485-4.147128,170.156705,0c5.680457-24.212974,13.299501-41.600402-21.874423-47.285086-.435711-1.304528-15.021192-35.334005-39.10692-20.387642-24.244953-16.170776-34.686667,3.221079-40.530237,8.783531-10.622738-10.274784-28.854739-17.094137-38.099634,4.410551-23.254025,5.285516-16.854372,23.067225-4.335535,37.967144C66.432528,123.108547,47.647186,130.691166,54.936902,150Z" transform="translate(-38.866112-61.406807)" fill="#fff" stroke="#d8dee9" stroke-width="4"/><path d="M72.585424,136.341481c4.221119,23.310863,31.392323,32.796647,52.244697,8.437329" transform="translate(48.084386-89.717978)" fill="none" stroke="#d8dee9" stroke-width="4"/><path d="M150,133.962005c5.934832,13.180627,27.701265,19.404499,49.299683,0" transform="translate(-96.492568-70.769041)" fill="none" stroke="#d8dee9" stroke-width="4"/></svg>