<svg id="eTntvziUIA41" xmlns="http://www.w3.org/2000/svg" xmlns:xlink="http://www.w3.org/1999/xlink" viewBox="0 0 200 100" shape-rendering="geometricPrecision" text-rendering="geometricPrecision"><path d="" fill="none" stroke="#3f5787" stroke-width="0.6"/><path d="M54.936902,150c36.207468-6.653672,121.84485-5.525098,170.156705,0c3.144548-19.676423,4.42429-24.152613-22.379293-28.411038-6.548413-10.477504-24.620124-18.686183-50.406365-6.035379-15.294422-19.879808-27.001737-6.58248-36.407914,0-12.634356-7.581989-47.471156-3.538467-47.481374,15.960191C53.515,130.84976,44.312816,134.75997,54.936902,150Z" transform="translate(-38.618209-72.968148)" fill="#fff" stroke="#d8dee9" stroke-width="4"/><path d="M82.394952,144.362779c3.158197,9.443224,24.677413,9.21782,42.435169.416031" transform="translate(-42.195371-85.095912)" fill="none" stroke="#d8dee9" stroke-width="4"/><path d="M150,133.962005c14.538168,11.689401,34.987904,18.447063,49.299683,0" transform="translate(-40.949907-79.203617)" fill="none" stroke="#d8dee9" stroke-width="4"/></svg>