<svg id="eO2VQBnb0Zv2" xmlns="http://www.w3.org/2000/svg" xmlns:xlink="http://www.w3.org/1999/xlink" viewBox="0 0 200 100" shape-rendering="geometricPrecision" text-rendering="geometricPrecision"><path d="" fill="none" stroke="#3f5787" stroke-width="0.6"/><path d="M54.936902,150c36.207468-4.985673,121.84485-4.147128,170.156705,0-0.978075-21.785468,7.087116-28.851401-19.033829-33.078597-.435713-1.304528-5.788353-22.099047-29.874081-7.152684-4.806909-16.004309-6.888194-30.644393-38.194703-12.977118-15.009123-18.795468-41.264519-10.692332-41.522951,16.977118-14.401096-4.749727-36.694352-5.611778-32.7863,22.769952C52.967413,118.158721,45.647186,130.691166,54.936902,150Z" transform="translate(-39.290675-69.990048)" fill="#fff" stroke="#d8dee9" stroke-width="4"/><path d="M72.585424,136.341481c3.309804,8.765523,14.225487,19.684889,36.194703,9.173909" transform="translate(15.553808-109.767625)" fill="none" stroke="#d8dee9" stroke-width="4"/><path d="M150,133.962005c10.171633,6.412303,14.491933,16.401685,34.215768,3.496187" transform="translate(-101.820816-73.668407)" fill="none" stroke="#d8dee9" stroke-width="4"/><path d="M150,133.962005c9.898102,6.21248,12.496469,21.082219,34.215768,3.496187" transform="translate(-11.152684-73.252374)" fill="none" stroke="#d8dee9" stroke-width="4"/></svg>
