<svg id="e2YVwAG01Xv1" xmlns="http://www.w3.org/2000/svg" xmlns:xlink="http://www.w3.org/1999/xlink" viewBox="0 0 200 100" shape-rendering="geometricPrecision" text-rendering="geometricPrecision"><path d="" fill="none" stroke="#3f5787" stroke-width="0.6"/><path d="M54.936902,150c36.207468-4.985673,121.84485-4.147128,170.156705,0-13.560036-26.376018-14.099168-19.490056-31.434607-19.115321-.435713-1.304528-10.44485-28.139327-34.530578-13.192964-17.743114-17.866908-12.932922-26.321428-36.194703-16.215094-7.086676-8.361296-12.99064-21.418032-25.793926,0-13.565428-5.585395-31.392859-3.292923-27.45805,25.06205C54.967413,116.158721,47.647186,130.691166,54.936902,150Z" transform="translate(-39.290674-69.990048)" fill="#fff" stroke="#d8dee9" stroke-width="4"/><path d="M72.585424,136.341481c3.309804,8.765523,14.225487,19.684889,36.194703,9.173909" transform="translate(27.698864-85.141636)" fill="none" stroke="#d8dee9" stroke-width="4"/><path d="M150,133.962005c9.171633,5.412303,12.491933,17.401685,32.215768,2.496187" transform="translate(-101.068909-76.084438)" fill="none" stroke="#d8dee9" stroke-width="4"/></svg>