<svg id="eVm3ANJZGLf1" xmlns="http://www.w3.org/2000/svg" xmlns:xlink="http://www.w3.org/1999/xlink" viewBox="0 0 200 100" shape-rendering="geometricPrecision" text-rendering="geometricPrecision"><path d="" fill="none" stroke="#3f5787" stroke-width="0.6"/><path d="M54.936902,150c36.69148-10.309807,122.375342-9.982547,170.156705,0c5.432863-17.570588,22.907384-47.769689-9.744665-60.252869-24.834954-30.776459-51.448207-25.573855-49.340322-9.618772-7.908429-15.855111-45.102966-29.270796-63.644177-9.52795C88.516119,60.25734,64.279451,65.040963,69.667361,89.747131c-31.315338,5.54032-15.999854,19.344857-14.730459,25.458309-10.350221,3.889427-4.501058,25.67756,0,34.79456Z" transform="translate(-41.89496-55.372106)" fill="#fff" stroke="#d8dee9" stroke-width="4"/><path d="M84.859263,122.309415c1.671942,16.313932,42.789731,17.739214,63.059313,6.035381" transform="translate(-40.114206-92.423879)" fill="none" stroke="#d8dee9" stroke-width="4"/><path d="M119.826077,136.776022c15.609078,11.421674,81.191348-1.938424,90.114464-19.038323" transform="translate(-33.457711-71.09444)" fill="none" stroke="#d8dee9" stroke-width="4"/></svg>