<svg id="eTntvziUIA42" xmlns="http://www.w3.org/2000/svg" xmlns:xlink="http://www.w3.org/1999/xlink" viewBox="0 0 200 100" shape-rendering="geometricPrecision" text-rendering="geometricPrecision"><path d="" fill="none" stroke="#3f5787" stroke-width="0.6"/><path d="M54.936902,150c36.207468-6.653672,121.84485-5.525098,170.156705,0c4.144548-17.676423,6.42429-22.152613-20.379293-26.411038-8.548413-8.477504-26.620124-16.686183-52.406365-4.035379-17.294422-17.879808-29.001737-4.58248-38.407914,2-14.634356-5.581989-49.471156-1.538467-49.481374,17.960191C51.515,132.84976,42.312816,134.75997,54.936902,150Z" transform="translate(-38.618209-72.968148)" fill="#fff" stroke="#d8dee9" stroke-width="4"/><path d="M82.394952,144.362779c3.158197,9.443224,24.677413,9.21782,42.435169.416031" transform="translate(-44.195371-83.095912)" fill="none" stroke="#d8dee9" stroke-width="4"/><path d="M150,133.962005c15.538168,12.689401,36.987904,17.447063,51.299683,0" transform="translate(-42.949907-77.203617)" fill="none" stroke="#d8dee9" stroke-width="4"/></svg>
