<svg xmlns="http://www.w3.org/2000/svg" viewBox="0 0 90 70" shape-rendering="geometricPrecision">
  <!-- Deer — paper diorama style, Nord palette -->
  <!-- Legs -->
  <path d="M24,54 L22,68" fill="none" stroke="#4c566a" stroke-width="2" stroke-linecap="round"/>
  <path d="M32,56 L31,68" fill="none" stroke="#4c566a" stroke-width="2" stroke-linecap="round"/>
  <path d="M52,56 L51,68" fill="none" stroke="#4c566a" stroke-width="2" stroke-linecap="round"/>
  <path d="M58,54 L60,68" fill="none" stroke="#4c566a" stroke-width="2" stroke-linecap="round"/>
  <!-- Body -->
  <path d="M20,48 C18,40 22,34 30,32 C38,30 50,30 58,32 C64,34 66,40 64,48 C62,54 56,58 48,58 C40,58 28,56 20,48Z" fill="#d08770" stroke="#4c566a" stroke-width="2" stroke-linejoin="round"/>
  <!-- Tail -->
  <path d="M18,42 C14,38 12,40 13,44" fill="none" stroke="#d08770" stroke-width="2.5" stroke-linecap="round"/>
  <!-- Neck -->
  <path d="M58,36 C59,34 60,32 61,30 L67,18 C68,20 68,22 67,24 L63,34 C62,36 60,37 58,36Z" fill="#d08770" stroke="#4c566a" stroke-width="1.5" stroke-linejoin="round"/>
  <!-- Head -->
  <ellipse cx="68" cy="16" rx="8" ry="6" fill="#d08770" stroke="#4c566a" stroke-width="1.5"/>
  <!-- Ears -->
  <path d="M72,12 C74,8 76,7 77,9" fill="#d08770" stroke="#4c566a" stroke-width="1.5" stroke-linecap="round"/>
  <path d="M64,12 C62,8 61,7 62,10" fill="#d08770" stroke="#4c566a" stroke-width="1.5" stroke-linecap="round"/>
  <!-- Eye -->
  <circle cx="72" cy="15" r="1" fill="#2e3440"/>
  <!-- Nose -->
  <ellipse cx="76" cy="17" rx="1.5" ry="1" fill="#2e3440"/>
  <!-- Antlers -->
  <!-- Left antler -->
  <path d="M66,10 C64,4 62,2 60,0" fill="none" stroke="#4c566a" stroke-width="1.8" stroke-linecap="round"/>
  <path d="M63,4 C60,3 58,4" fill="none" stroke="#4c566a" stroke-width="1.5" stroke-linecap="round"/>
  <path d="M64,6 C62,7 60,6" fill="none" stroke="#4c566a" stroke-width="1.3" stroke-linecap="round"/>
  <!-- Right antler -->
  <path d="M70,10 C72,4 74,2 76,0" fill="none" stroke="#4c566a" stroke-width="1.8" stroke-linecap="round"/>
  <path d="M73,4 C76,3 78,4" fill="none" stroke="#4c566a" stroke-width="1.5" stroke-linecap="round"/>
  <path d="M72,6 C74,7 76,6" fill="none" stroke="#4c566a" stroke-width="1.3" stroke-linecap="round"/>
</svg>
