<svg xmlns="http://www.w3.org/2000/svg" viewBox="0 0 90 80" shape-rendering="geometricPrecision">
  <!-- Deer — paper diorama style, Nord palette -->
  <!-- Legs -->
  <path d="M26,50 L23,78" fill="none" stroke="#4c566a" stroke-width="2" stroke-linecap="round"/>
  <path d="M34,51 L32,78" fill="none" stroke="#4c566a" stroke-width="2" stroke-linecap="round"/>
  <path d="M52,51 L50,78" fill="none" stroke="#4c566a" stroke-width="2" stroke-linecap="round"/>
  <path d="M60,50 L63,78" fill="none" stroke="#4c566a" stroke-width="2" stroke-linecap="round"/>
  <!-- Body -->
  <path d="M20,45 C20,38 24,34 32,33 C40,32 48,32 56,33 C62,34 66,38 66,45 C66,50 62,54 56,55 C48,56 40,56 32,55 C24,54 20,50 20,45Z" fill="#d08770" stroke="#4c566a" stroke-width="2" stroke-linejoin="round"/>
  <!-- Tail -->
  <path d="M18,40 C14,36 12,38 13,42" fill="none" stroke="#d08770" stroke-width="2.5" stroke-linecap="round"/>
  <!-- Neck -->
  <path d="M60,38 C61,36 62,34 63,32 L68,20 C69,22 69,24 68,26 L64,35 C63,37 61,38 60,38Z" fill="#d08770" stroke="#4c566a" stroke-width="1.5" stroke-linejoin="round"/>
  <!-- Head -->
  <ellipse cx="68" cy="16" rx="8" ry="6" fill="#d08770" stroke="#4c566a" stroke-width="1.5"/>
  <!-- Ears -->
  <path d="M72,12 C74,8 76,7 77,9" fill="#d08770" stroke="#4c566a" stroke-width="1.5" stroke-linecap="round"/>
  <path d="M64,12 C62,8 61,7 62,10" fill="#d08770" stroke="#4c566a" stroke-width="1.5" stroke-linecap="round"/>
  <!-- Eye -->
  <circle cx="72" cy="15" r="1" fill="#2e3440"/>
  <!-- Nose -->
  <ellipse cx="76" cy="17" rx="1.5" ry="1" fill="#2e3440"/>
  <!-- Antlers -->
  <!-- Left antler -->
  <path d="M66,10 C64,4 62,2 60,0" fill="none" stroke="#4c566a" stroke-width="1.8" stroke-linecap="round"/>
  <path d="M63,4 C60,3 58,4" fill="none" stroke="#4c566a" stroke-width="1.5" stroke-linecap="round"/>
  <path d="M64,6 C62,7 60,6" fill="none" stroke="#4c566a" stroke-width="1.3" stroke-linecap="round"/>
  <!-- Right antler -->
  <path d="M70,10 C72,4 74,2 76,0" fill="none" stroke="#4c566a" stroke-width="1.8" stroke-linecap="round"/>
  <path d="M73,4 C76,3 78,4" fill="none" stroke="#4c566a" stroke-width="1.5" stroke-linecap="round"/>
  <path d="M72,6 C74,7 76,6" fill="none" stroke="#4c566a" stroke-width="1.3" stroke-linecap="round"/>
</svg>
