<svg id="eO95UnYLx1o1" xmlns="http://www.w3.org/2000/svg" xmlns:xlink="http://www.w3.org/1999/xlink" viewBox="0 0 4000 1000" shape-rendering="geometricPrecision" text-rendering="geometricPrecision"><g transform="matrix(1 0 0 1.068292-38.615716-72.709759)"><path d="M196.89797,920.324379h3.613167l-.000001-52.324636h-6.612852l2.999686,52.324636Z" transform="translate(-11.516967 78.311489)" fill="#a3be8c" stroke="#7a8e68" stroke-width="4"/><path d="M185.381003,944.39382l-3.37035-2.975339h-5.048514v-4.073417l-3.08577-.661032l1.82529-3.780761-3.484231-2.223977l2.446375-3.410098-1.195459-4.391546l3.493795-1.354939l1.185895-3.521885l4.419238.24115l2.81373-3.493951l2.536718,3.252801h4.686166l.930244,3.224487l3.815484.297398-.918451,3.50674l2.047566,4.093059-2.983673,2.89117l1.854558,3.706629-2.376489,1.624755-1.438995,4.676513-4.488608-.603096-3.664519,2.975339Z" transform="translate(.370664 5.828825)" fill="#ebcb8b" stroke="#cfb176" stroke-width="3" stroke-linecap="round" stroke-linejoin="round"/></g><g transform="translate(-55 0)"><path d="M333.550311,989.801133h26.602089l1.900149-155.099683-27.077127-.475038-1.425111,155.574721Z" transform="translate(.000001 0.000001)" fill="#815020" stroke="#65381c" stroke-width="4"/><path d="" fill="none" stroke="#3f5787" stroke-width="8"/><path d="M335.335997,835.981728c-17.987474,9.152777-42.39861,3.638559-48.050364-12.866882-16.150025-1.185256-36.463843-9.380137-29.235638-32.894566-11.677166-16.007127-14.074889-43.358676-.338974-54.574765-4.945388-16.344702,6.929252-36.150178,29.124466-37.999185c4.861723-22.330925,36.687699-29.224417,64.828493-19.197771c13.67351-9.813568,37.374329-6.488335,45.138842,10.729725c19.359544-3.578473,40.750526,4.515439,36.99905,27.749288c20.050578,4.468134,15.0203,39.273261,3.699905,55.498575c10.861609,11.195564-1.476945,42.646049-19.239506,45.508832c2.199861,18.952372-41.657349,32.319754-52.632904,17.076286-8.701885,11.353627-23.735674,6.598814-30.29337.970463Z" transform="translate(-7.067939 6.934776)" fill="#a3be8c" stroke="#7a8e68" stroke-width="8"/><line x1="-200" y1="0" x2="200" y2="0" transform="matrix(0 0.097781-1 0 342.45457 882.019007)" fill="none" stroke="#65381c" stroke-width="3"/><path d="M-200,0c86.825741,13.923397,277.041962,17.161653,386.340681-.245431" transform="matrix(.097781 0 0 1 298.26786 778.726337)" fill="none" stroke="#7a8e68" stroke-width="3"/><path d="M-200,0c75.793346,14.013632,230.072879,19.505577,386.340681-.245431" transform="matrix(.097781 0 0 1 360.687564 804.630095)" fill="none" stroke="#7a8e68" stroke-width="3"/><path d="M-200,0c86.324393,11.782619,270.904631,14.62167,386.340681-.245431" transform="matrix(.097781 0 0 1.169903 389.754871 766.124754)" fill="none" stroke="#7a8e68" stroke-width="3"/><path d="M-200,0c55.237016,15.221462,243.007763,17.594011,386.340681-.245431" transform="matrix(.097781 0 0 1 300.78601 728.09601)" fill="none" stroke="#7a8e68" stroke-width="3"/><path d="M-200,0c93.626121,14.740558,287.224073,21.913738,386.340681-.245431" transform="matrix(.097781 0 0 1 384.200807 718.936739)" fill="none" stroke="#7a8e68" stroke-width="3"/><line x1="-200" y1="0" x2="200" y2="0" transform="matrix(0 0.082704-1 0 342.45457 949.866656)" fill="none" stroke="#65381c" stroke-width="3"/><line x1="-200" y1="0" x2="200" y2="0" transform="matrix(0 0.07014-1 0 356.024099 876.993255)" fill="none" stroke="#65381c" stroke-width="3"/><line x1="-200" y1="0" x2="200" y2="0" transform="matrix(0 0.065113-1 0 352.506074 960.92331)" fill="none" stroke="#65381c" stroke-width="3"/><line x1="-200" y1="0" x2="200" y2="0" transform="matrix(0 0.102729-1 0 350.586832 918.189151)" fill="none" stroke="#65381c" stroke-width="3"/></g><path d="M0,1000v-9.442587v0l9.986515-37.158914v-18.141725l6.796843,18.841981l3.199166,35.719189l7.091065-30.474185l5.761491,31.213654l5.018523-47.189589l6.777669,47.189589l6.777668-31.213655l4.915296,31.213655l6.204683-35.530011l4.875108,34.790542l5.318299-36.784904l6.86947-10.636599-3.102341,10.636599l2.077313,37.524373L84.6885,957.686552l6.204682,32.574584l5.3183-34.568946l1.188783,34.865244L107.95606,966.77198l3.323937,23.785433l9.085428-41.734694l5.113753,41.734694l8.493198-23.563837l1.658941,23.563837l5.339676-18.626556l8.222824,18.626577l15-51.546683v51.546683l9.274527-31.213676l8.912973,31.213676v-47.18961l12.4375,47.18961l9.088228-40.298705l5.349272,40.298705l5.575852-36.134827v-11.054782l2.767471,10.760227l3.594177,36.429382l4.056168-23.020386l4.118973-13.438293v13.764038l2.887359,22.694641l5.111695-47.189609l5.075805,47.189609l6.003985-40.626736l3.746023,40.626706l3.788235-14.4784l4.649249,14.4784l1.777029-35.973194l5.972971,35.973194l3.584198-41.721314-1.358124-11.093161l2.814484,10.463889l2.709442,42.350586l6.220652-29.546915l2.216848,29.546915l5.539005-41.734685l5.335995,41.734685-.017695-42.842664l8.892695,42.842664l6.840607-37.74596.909393,37.74596L4000,990.557413v9.442587h-4000" transform="translate(.221596-.886383)" fill="#a3be8c" stroke="#7a8e68" stroke-width="2.5" stroke-linecap="round" stroke-linejoin="round"/><path d="" fill="none" stroke="#3f5787" stroke-width="8"/><path d="" fill="none" stroke="#3f5787" stroke-width="8"/></svg>