<svg xmlns="http://www.w3.org/2000/svg" viewBox="0 0 60 35" shape-rendering="geometricPrecision">
  <!-- Grass tuft — spiky blades rising from a base, paper diorama style -->
  <path d="M10,34 C12,24 8,16 6,8" fill="none" stroke="#a3be8c" stroke-width="2.5" stroke-linecap="round"/>
  <path d="M14,34 C13,28 15,22 14,18" fill="none" stroke="#8fbcbb" stroke-width="1.5" stroke-linecap="round"/>
  <path d="M18,34 C17,22 20,14 22,4" fill="none" stroke="#8fbcbb" stroke-width="2.5" stroke-linecap="round"/>
  <path d="M26,34 C25,20 27,12 30,6" fill="none" stroke="#a3be8c" stroke-width="2" stroke-linecap="round"/>
  <path d="M34,34 C35,22 32,14 30,10" fill="none" stroke="#8fbcbb" stroke-width="2.5" stroke-linecap="round"/>
  <path d="M38,34 C39,28 37,22 38,16" fill="none" stroke="#a3be8c" stroke-width="1.5" stroke-linecap="round"/>
  <path d="M42,34 C40,26 43,18 46,10" fill="none" stroke="#a3be8c" stroke-width="2" stroke-linecap="round"/>
  <path d="M50,34 C48,28 52,20 54,14" fill="none" stroke="#8fbcbb" stroke-width="2.5" stroke-linecap="round"/>
</svg>
