<svg id="eERWntLCHMG1" xmlns="http://www.w3.org/2000/svg" xmlns:xlink="http://www.w3.org/1999/xlink" viewBox="0 0 4000 1000" shape-rendering="geometricPrecision" text-rendering="geometricPrecision"><g transform="translate(-41.566505 2.50289)"><path d="M333.550311,989.801133h26.602089l1.900149-155.099683-27.077127-.475038-1.425111,155.574721Z" transform="translate(.000001 0.000001)" fill="#815020" stroke="#65381c" stroke-width="4"/><path d="" fill="none" stroke="#3f5787" stroke-width="8"/><path d="M335.335997,835.981728c-17.987474,9.152777-42.39861,3.638559-48.050364-12.866882-16.150025-1.185256-36.463843-9.380137-29.235638-32.894566-11.677166-16.007127-14.074889-43.358676-.338974-54.574765-4.945388-16.344702,6.929252-36.150178,29.124466-37.999185c4.861723-22.330925,36.687699-29.224417,64.828493-19.197771c13.67351-9.813568,37.374329-6.488335,45.138842,10.729725c19.359544-3.578473,40.750526,4.515439,36.99905,27.749288c20.050578,4.468134,15.0203,39.273261,3.699905,55.498575c10.861609,11.195564-1.476945,42.646049-19.239506,45.508832c2.199861,18.952372-41.657349,32.319754-52.632904,17.076286-8.701885,11.353627-23.735674,6.598814-30.29337.970463Z" transform="translate(-7.067939 6.934776)" fill="#a3be8c" stroke="#7a8e68" stroke-width="8"/><line x1="-200" y1="0" x2="200" y2="0" transform="matrix(0 0.097781-1 0 342.45457 882.019007)" fill="none" stroke="#65381c" stroke-width="3"/><path d="M-200,0c86.825741,13.923397,277.041962,17.161653,386.340681-.245431" transform="matrix(.097781 0 0 1 298.26786 778.726337)" fill="none" stroke="#7a8e68" stroke-width="3"/><path d="M-200,0c75.793346,14.013632,230.072879,19.505577,386.340681-.245431" transform="matrix(.097781 0 0 1 360.687564 804.630095)" fill="none" stroke="#7a8e68" stroke-width="3"/><path d="M-200,0c86.324393,11.782619,270.904631,14.62167,386.340681-.245431" transform="matrix(.097781 0 0 1.169903 389.754871 766.124754)" fill="none" stroke="#7a8e68" stroke-width="3"/><path d="M-200,0c55.237016,15.221462,243.007763,17.594011,386.340681-.245431" transform="matrix(.097781 0 0 1 300.78601 728.09601)" fill="none" stroke="#7a8e68" stroke-width="3"/><path d="M-200,0c93.626121,14.740558,287.224073,21.913738,386.340681-.245431" transform="matrix(.097781 0 0 1 384.200807 718.936739)" fill="none" stroke="#7a8e68" stroke-width="3"/><line x1="-200" y1="0" x2="200" y2="0" transform="matrix(0 0.082704-1 0 342.45457 949.866656)" fill="none" stroke="#65381c" stroke-width="3"/><line x1="-200" y1="0" x2="200" y2="0" transform="matrix(0 0.07014-1 0 356.024099 876.993255)" fill="none" stroke="#65381c" stroke-width="3"/><line x1="-200" y1="0" x2="200" y2="0" transform="matrix(0 0.065113-1 0 352.506074 960.92331)" fill="none" stroke="#65381c" stroke-width="3"/><line x1="-200" y1="0" x2="200" y2="0" transform="matrix(0 0.102729-1 0 350.586832 918.189151)" fill="none" stroke="#65381c" stroke-width="3"/></g><g transform="translate(78.188706 2.50289)"><path d="M333.550311,989.801133h26.602089l1.900149-155.099683-27.077127-.475038-1.425111,155.574721Z" transform="translate(.000001 0.000001)" fill="#815020" stroke="#65381c" stroke-width="4"/><path d="" fill="none" stroke="#3f5787" stroke-width="8"/><path d="M335.335997,835.981728c-17.987474,9.152777-42.39861,3.638559-48.050364-12.866882-16.150025-1.185256-36.463843-9.380137-29.235638-32.894566-11.677166-16.007127-14.074889-43.358676-.338974-54.574765-4.945388-16.344702,6.929252-36.150178,29.124466-37.999185c4.861723-22.330925,36.687699-29.224417,64.828493-19.197771c13.67351-9.813568,37.374329-6.488335,45.138842,10.729725c19.359544-3.578473,40.750526,4.515439,36.99905,27.749288c20.050578,4.468134,15.0203,39.273261,3.699905,55.498575c10.861609,11.195564-1.476945,42.646049-19.239506,45.508832c2.199861,18.952372-41.657349,32.319754-52.632904,17.076286-8.701885,11.353627-23.735674,6.598814-30.29337.970463Z" transform="translate(-7.067939 6.934776)" fill="#a3be8c" stroke="#7a8e68" stroke-width="8"/><line x1="-200" y1="0" x2="200" y2="0" transform="matrix(0 0.097781-1 0 342.45457 882.019007)" fill="none" stroke="#65381c" stroke-width="3"/><path d="M-200,0c86.825741,13.923397,277.041962,17.161653,386.340681-.245431" transform="matrix(.097781 0 0 1 298.26786 778.726337)" fill="none" stroke="#7a8e68" stroke-width="3"/><path d="M-200,0c75.793346,14.013632,230.072879,19.505577,386.340681-.245431" transform="matrix(.097781 0 0 1 360.687564 804.630095)" fill="none" stroke="#7a8e68" stroke-width="3"/><path d="M-200,0c86.324393,11.782619,270.904631,14.62167,386.340681-.245431" transform="matrix(.097781 0 0 1.169903 389.754871 766.124754)" fill="none" stroke="#7a8e68" stroke-width="3"/><path d="M-200,0c55.237016,15.221462,243.007763,17.594011,386.340681-.245431" transform="matrix(.097781 0 0 1 300.78601 728.09601)" fill="none" stroke="#7a8e68" stroke-width="3"/><path d="M-200,0c93.626121,14.740558,287.224073,21.913738,386.340681-.245431" transform="matrix(.097781 0 0 1 384.200807 718.936739)" fill="none" stroke="#7a8e68" stroke-width="3"/><line x1="-200" y1="0" x2="200" y2="0" transform="matrix(0 0.082704-1 0 342.45457 949.866656)" fill="none" stroke="#65381c" stroke-width="3"/><line x1="-200" y1="0" x2="200" y2="0" transform="matrix(0 0.07014-1 0 356.024099 876.993255)" fill="none" stroke="#65381c" stroke-width="3"/><line x1="-200" y1="0" x2="200" y2="0" transform="matrix(0 0.065113-1 0 352.506074 960.92331)" fill="none" stroke="#65381c" stroke-width="3"/><line x1="-200" y1="0" x2="200" y2="0" transform="matrix(0 0.102729-1 0 350.586832 918.189151)" fill="none" stroke="#65381c" stroke-width="3"/></g><g transform="translate(27.921087 12.852106)"><path d="M333.550311,989.801133h26.602089l1.900149-155.099683-27.077127-.475038-1.425111,155.574721Z" transform="translate(.000001 0.000001)" fill="#815020" stroke="#65381c" stroke-width="4"/><path d="" fill="none" stroke="#3f5787" stroke-width="8"/><path d="M335.335997,835.981728c-17.987474,9.152777-42.39861,3.638559-48.050364-12.866882-16.150025-1.185256-36.463843-9.380137-29.235638-32.894566-11.677166-16.007127-14.074889-43.358676-.338974-54.574765-4.945388-16.344702,6.929252-36.150178,29.124466-37.999185c4.861723-22.330925,36.687699-29.224417,64.828493-19.197771c13.67351-9.813568,37.374329-6.488335,45.138842,10.729725c19.359544-3.578473,40.750526,4.515439,36.99905,27.749288c20.050578,4.468134,15.0203,39.273261,3.699905,55.498575c10.861609,11.195564-1.476945,42.646049-19.239506,45.508832c2.199861,18.952372-41.657349,32.319754-52.632904,17.076286-8.701885,11.353627-23.735674,6.598814-30.29337.970463Z" transform="translate(-1.09345 10.917769)" fill="#a3be8c" stroke="#7a8e68" stroke-width="8"/><line x1="-200" y1="0" x2="200" y2="0" transform="matrix(0 0.097781-1 0 342.45457 882.019007)" fill="none" stroke="#65381c" stroke-width="3"/><path d="M-200,0c86.825741,13.923397,277.041962,17.161653,386.340681-.245431" transform="matrix(.097781 0 0 1 307.561511 803.95196)" fill="none" stroke="#7a8e68" stroke-width="3"/><path d="M-200,0c75.793346,14.013632,230.072879,19.505577,386.340681-.245431" transform="matrix(.097781 0 0 1 379.938697 809.27692)" fill="none" stroke="#7a8e68" stroke-width="3"/><path d="M-200,0c86.324393,11.782619,270.904631,14.62167,386.340681-.245431" transform="matrix(.097781 0 0 1.169903 358.554759 767.452418)" fill="none" stroke="#7a8e68" stroke-width="3"/><path d="M-200,0c55.237016,15.221462,243.007763,17.594011,386.340681-.245431" transform="matrix(.097781 0 0 1 313.398822 738.053492)" fill="none" stroke="#7a8e68" stroke-width="3"/><path d="M-200,0c93.626121,14.740558,287.224073,21.913738,386.340681-.245431" transform="matrix(.097781 0 0 1 384.200807 718.936739)" fill="none" stroke="#7a8e68" stroke-width="3"/><line x1="-200" y1="0" x2="200" y2="0" transform="matrix(0 0.082704-1 0 342.45457 949.866656)" fill="none" stroke="#65381c" stroke-width="3"/><line x1="-200" y1="0" x2="200" y2="0" transform="matrix(0 0.07014-1 0 356.024099 876.993255)" fill="none" stroke="#65381c" stroke-width="3"/><line x1="-200" y1="0" x2="200" y2="0" transform="matrix(0 0.065113-1 0 352.506074 960.92331)" fill="none" stroke="#65381c" stroke-width="3"/><line x1="-200" y1="0" x2="200" y2="0" transform="matrix(0 0.102729-1 0 350.586832 918.189151)" fill="none" stroke="#65381c" stroke-width="3"/></g><g transform="translate(1410.280619 32.072078)"><path d="M333.550311,989.801133h26.602089l1.900149-155.099683-27.077127-.475038-1.425111,155.574721Z" transform="translate(.000001 0.000001)" fill="#815020" stroke="#65381c" stroke-width="4"/><path d="" fill="none" stroke="#3f5787" stroke-width="8"/><path d="M335.335997,835.981728c-17.987474,9.152777-42.39861,3.638559-48.050364-12.866882-16.150025-1.185256-36.463843-9.380137-29.235638-32.894566-11.677166-16.007127-14.074889-43.358676-.338974-54.574765-4.945388-16.344702,6.929252-36.150178,29.124466-37.999185c4.861723-22.330925,36.687699-29.224417,64.828493-19.197771c13.67351-9.813568,37.374329-6.488335,45.138842,10.729725c19.359544-3.578473,40.750526,4.515439,36.99905,27.749288c20.050578,4.468134,15.0203,39.273261,3.699905,55.498575c10.861609,11.195564-1.476945,42.646049-19.239506,45.508832c2.199861,18.952372-41.657349,32.319754-52.632904,17.076286-8.701885,11.353627-23.735674,6.598814-30.29337.970463Z" transform="translate(-7.067939 6.934776)" fill="#a3be8c" stroke="#7a8e68" stroke-width="8"/><line x1="-200" y1="0" x2="200" y2="0" transform="matrix(0 0.097781-1 0 342.45457 882.019007)" fill="none" stroke="#65381c" stroke-width="3"/><path d="M-200,0c86.825741,13.923397,277.041962,17.161653,386.340681-.245431" transform="matrix(.097781 0 0 1 318.75188 775.761544)" fill="none" stroke="#7a8e68" stroke-width="3"/><path d="M-200,0c75.793346,14.013632,230.072879,19.505577,386.340681-.245431" transform="matrix(.097781 0 0 1 360.687564 804.630095)" fill="none" stroke="#7a8e68" stroke-width="3"/><path d="M-200,0c86.324393,11.782619,270.904631,14.62167,386.340681-.245431" transform="matrix(.097781 0 0 1.169903 399.457828 781.757296)" fill="none" stroke="#7a8e68" stroke-width="3"/><path d="M-200,0c55.237016,15.221462,243.007763,17.594011,386.340681-.245431" transform="matrix(.097781 0 0 1 322.617664 721.627372)" fill="none" stroke="#7a8e68" stroke-width="3"/><path d="M-200,0c93.626121,14.740558,287.224073,21.913738,386.340681-.245431" transform="matrix(.097781 0 0 1 395.251397 728.37017)" fill="none" stroke="#7a8e68" stroke-width="3"/><line x1="-200" y1="0" x2="200" y2="0" transform="matrix(0 0.082704-1 0 342.45457 949.866656)" fill="none" stroke="#65381c" stroke-width="3"/><line x1="-200" y1="0" x2="200" y2="0" transform="matrix(0 0.07014-1 0 356.024099 876.993255)" fill="none" stroke="#65381c" stroke-width="3"/><line x1="-200" y1="0" x2="200" y2="0" transform="matrix(0 0.065113-1 0 352.506074 960.92331)" fill="none" stroke="#65381c" stroke-width="3"/><line x1="-200" y1="0" x2="200" y2="0" transform="matrix(0 0.102729-1 0 350.586832 918.189151)" fill="none" stroke="#65381c" stroke-width="3"/></g><g transform="translate(1125.938018 26.209344)"><path d="M333.550311,989.801133h26.602089l1.900149-155.099683-27.077127-.475038-1.425111,155.574721Z" transform="translate(.000001 0.000001)" fill="#815020" stroke="#65381c" stroke-width="4"/><path d="" fill="none" stroke="#3f5787" stroke-width="8"/><path d="M335.335997,835.981728c-17.987474,9.152777-42.39861,3.638559-48.050364-12.866882-16.150025-1.185256-36.463843-9.380137-29.235638-32.894566-11.677166-16.007127-14.074889-43.358676-.338974-54.574765-4.945388-16.344702,6.929252-36.150178,29.124466-37.999185c4.861723-22.330925,36.687699-29.224417,64.828493-19.197771c13.67351-9.813568,37.374329-6.488335,45.138842,10.729725c19.359544-3.578473,40.750526,4.515439,36.99905,27.749288c20.050578,4.468134,15.0203,39.273261,3.699905,55.498575c10.861609,11.195564-1.476945,42.646049-19.239506,45.508832c2.199861,18.952372-41.657349,32.319754-52.632904,17.076286-8.701885,11.353627-23.735674,6.598814-30.29337.970463Z" transform="translate(-4.41261 4.943279)" fill="#a3be8c" stroke="#7a8e68" stroke-width="8"/><line x1="-200" y1="0" x2="200" y2="0" transform="matrix(0 0.097781-1 0 342.45457 882.019007)" fill="none" stroke="#65381c" stroke-width="3"/><path d="M-200,0c86.825741,13.923397,277.041962,17.161653,386.340681-.245431" transform="matrix(.097781 0 0 1 283.426054 758.454602)" fill="none" stroke="#7a8e68" stroke-width="3"/><path d="M-200,0c75.793346,14.013632,230.072879,19.505577,386.340681-.245431" transform="matrix(.097781 0 0 1 339.334373 792.767211)" fill="none" stroke="#7a8e68" stroke-width="3"/><path d="M-200,0c86.324393,11.782619,270.904631,14.62167,386.340681-.245431" transform="matrix(.097781 0 0 1.169903 403.041301 785.342626)" fill="none" stroke="#7a8e68" stroke-width="3"/><path d="M-200,0c68.166937,18.963415,233.367302,34.894821,386.340681-.245431" transform="matrix(.097781 0 0 1 342.514673 727.945527)" fill="none" stroke="#7a8e68" stroke-width="3"/><path d="M-200,0c93.626121,14.740558,287.224073,21.913738,386.340681-.245431" transform="matrix(.097781 0 0 1 385.829786 703.732938)" fill="none" stroke="#7a8e68" stroke-width="3"/><line x1="-200" y1="0" x2="200" y2="0" transform="matrix(0 0.082704-1 0 342.45457 949.866656)" fill="none" stroke="#65381c" stroke-width="3"/><line x1="-200" y1="0" x2="200" y2="0" transform="matrix(0 0.07014-1 0 356.024099 876.993255)" fill="none" stroke="#65381c" stroke-width="3"/><line x1="-200" y1="0" x2="200" y2="0" transform="matrix(0 0.065113-1 0 352.506074 960.92331)" fill="none" stroke="#65381c" stroke-width="3"/><line x1="-200" y1="0" x2="200" y2="0" transform="matrix(0 0.102729-1 0 350.586832 918.189151)" fill="none" stroke="#65381c" stroke-width="3"/></g><g transform="translate(1592.131124 9.895187)"><path d="M333.550311,989.801133h26.602089l1.900149-155.099683-27.077127-.475038-1.425111,155.574721Z" transform="translate(.000001 0.000001)" fill="#815020" stroke="#65381c" stroke-width="4"/><path d="" fill="none" stroke="#3f5787" stroke-width="8"/><path d="M335.335997,835.981728c-17.987474,9.152777-42.39861,3.638559-48.050364-12.866882-16.150025-1.185256-36.463843-9.380137-29.235638-32.894566-11.677166-16.007127-14.074889-43.358676-.338974-54.574765-4.945388-16.344702,6.929252-36.150178,29.124466-37.999185c4.861723-22.330925,36.687699-29.224417,64.828493-19.197771c13.67351-9.813568,37.374329-6.488335,45.138842,10.729725c19.359544-3.578473,40.750526,4.515439,36.99905,27.749288c20.050578,4.468134,15.0203,39.273261,3.699905,55.498575c10.861609,11.195564-1.476945,42.646049-19.239506,45.508832c2.199861,18.952372-41.657349,32.319754-52.632904,17.076286-8.701885,11.353627-23.735674,6.598814-30.29337.970463Z" transform="translate(-7.067939 6.934776)" fill="#a3be8c" stroke="#7a8e68" stroke-width="8"/><line x1="-200" y1="0" x2="200" y2="0" transform="matrix(0 0.097781-1 0 342.45457 882.019007)" fill="none" stroke="#65381c" stroke-width="3"/><path d="M-200,0c86.825741,13.923397,277.041962,17.161653,386.340681-.245431" transform="matrix(.097781 0 0 1 282.784731 765.455083)" fill="none" stroke="#7a8e68" stroke-width="3"/><path d="M-200,0c75.793346,14.013632,230.072879,19.505577,386.340681-.245431" transform="matrix(.097781 0 0 1 317.187346 806.473324)" fill="none" stroke="#7a8e68" stroke-width="3"/><path d="M-200,0c86.324393,11.782619,270.904631,14.62167,386.340681-.245431" transform="matrix(.097781 0 0 1.169903 372.797159 783.819758)" fill="none" stroke="#7a8e68" stroke-width="3"/><path d="M-200,0c55.237016,15.221462,243.007763,17.594011,386.340681-.245431" transform="matrix(.097781 0 0 1 287.514757 724.40955)" fill="none" stroke="#7a8e68" stroke-width="3"/><path d="M-200,0c93.626121,14.740558,287.224073,21.913738,386.340681-.245431" transform="matrix(.097781 0 0 1 362.819343 721.885907)" fill="none" stroke="#7a8e68" stroke-width="3"/><line x1="-200" y1="0" x2="200" y2="0" transform="matrix(0 0.082704-1 0 342.45457 949.866656)" fill="none" stroke="#65381c" stroke-width="3"/><line x1="-200" y1="0" x2="200" y2="0" transform="matrix(0 0.07014-1 0 356.024099 876.993255)" fill="none" stroke="#65381c" stroke-width="3"/><line x1="-200" y1="0" x2="200" y2="0" transform="matrix(0 0.065113-1 0 352.506074 960.92331)" fill="none" stroke="#65381c" stroke-width="3"/><line x1="-200" y1="0" x2="200" y2="0" transform="matrix(0 0.102729-1 0 350.586832 918.189151)" fill="none" stroke="#65381c" stroke-width="3"/></g><g transform="translate(2318.054686 12.852106)"><path d="M333.550311,989.801133h26.602089l1.900149-155.099683-27.077127-.475038-1.425111,155.574721Z" transform="translate(.000001 0.000001)" fill="#815020" stroke="#65381c" stroke-width="4"/><path d="" fill="none" stroke="#3f5787" stroke-width="8"/><path d="M335.335997,835.981728c-17.987474,9.152777-42.39861,3.638559-48.050364-12.866882-16.150025-1.185256-36.463843-9.380137-29.235638-32.894566-11.677166-16.007127-14.074889-43.358676-.338974-54.574765-4.945388-16.344702,6.929252-36.150178,29.124466-37.999185c4.861723-22.330925,36.687699-29.224417,64.828493-19.197771c13.67351-9.813568,37.374329-6.488335,45.138842,10.729725c19.359544-3.578473,40.750526,4.515439,36.99905,27.749288c20.050578,4.468134,15.0203,39.273261,3.699905,55.498575c10.861609,11.195564-1.476945,42.646049-19.239506,45.508832c2.199861,18.952372-41.657349,32.319754-52.632904,17.076286-8.701885,11.353627-23.735674,6.598814-30.29337.970463Z" transform="translate(-7.067939 6.934776)" fill="#a3be8c" stroke="#7a8e68" stroke-width="8"/><line x1="-200" y1="0" x2="200" y2="0" transform="matrix(0 0.097781-1 0 342.45457 882.019007)" fill="none" stroke="#65381c" stroke-width="3"/><path d="M-200,0c86.825741,13.923397,277.041962,17.161653,386.340681-.245431" transform="matrix(.097781 0 0 1 330.585265 758.118136)" fill="none" stroke="#7a8e68" stroke-width="3"/><path d="M-200,0c75.793346,14.013632,230.072879,19.505577,386.340681-.245431" transform="matrix(.097781 0 0 1 305.888485 799.478045)" fill="none" stroke="#7a8e68" stroke-width="3"/><path d="M-200,0c86.324393,11.782619,270.904631,14.62167,386.340681-.245431" transform="matrix(.097781 0 0 1.169903 370.551775 783.922746)" fill="none" stroke="#7a8e68" stroke-width="3"/><path d="M-200,0c55.237016,15.221462,243.007763,17.594011,386.340681-.245431" transform="matrix(.097781 0 0 1 287.203332 733.24806)" fill="none" stroke="#7a8e68" stroke-width="3"/><path d="M-200,0c93.626121,14.740558,287.224073,21.913738,386.340681-.245431" transform="matrix(.097781 0 0 1 384.200807 718.936739)" fill="none" stroke="#7a8e68" stroke-width="3"/><line x1="-200" y1="0" x2="200" y2="0" transform="matrix(0 0.082704-1 0 342.45457 949.866656)" fill="none" stroke="#65381c" stroke-width="3"/><line x1="-200" y1="0" x2="200" y2="0" transform="matrix(0 0.07014-1 0 356.024099 876.993255)" fill="none" stroke="#65381c" stroke-width="3"/><line x1="-200" y1="0" x2="200" y2="0" transform="matrix(0 0.065113-1 0 352.506074 960.92331)" fill="none" stroke="#65381c" stroke-width="3"/><line x1="-200" y1="0" x2="200" y2="0" transform="matrix(0 0.102729-1 0 350.586832 918.189151)" fill="none" stroke="#65381c" stroke-width="3"/></g><g transform="translate(3036.58595 60.162806)"><path d="M333.550311,989.801133h26.602089l1.900149-155.099683-27.077127-.475038-1.425111,155.574721Z" transform="translate(.000001 0.000001)" fill="#815020" stroke="#65381c" stroke-width="4"/><path d="" fill="none" stroke="#3f5787" stroke-width="8"/><path d="M335.335997,835.981728c-17.987474,9.152777-42.39861,3.638559-48.050364-12.866882-16.150025-1.185256-36.463843-9.380137-29.235638-32.894566-11.677166-16.007127-14.074889-43.358676-.338974-54.574765-4.945388-16.344702,6.929252-36.150178,29.124466-37.999185c4.861723-22.330925,36.687699-29.224417,64.828493-19.197771c13.67351-9.813568,37.374329-6.488335,45.138842,10.729725c19.359544-3.578473,40.750526,4.515439,36.99905,27.749288c20.050578,4.468134,15.0203,39.273261,3.699905,55.498575c10.861609,11.195564-1.476945,42.646049-19.239506,45.508832c2.199861,18.952372-41.657349,32.319754-52.632904,17.076286-8.701885,11.353627-23.735674,6.598814-30.29337.970463Z" transform="translate(-7.067939 6.934776)" fill="#a3be8c" stroke="#7a8e68" stroke-width="8"/><line x1="-200" y1="0" x2="200" y2="0" transform="matrix(0 0.097781-1 0 342.45457 882.019007)" fill="none" stroke="#65381c" stroke-width="3"/><path d="M-200,0c86.825741,13.923397,277.041962,17.161653,386.340681-.245431" transform="matrix(.097781 0 0 1 298.26786 778.726337)" fill="none" stroke="#7a8e68" stroke-width="3"/><path d="M-200,0c75.793346,14.013632,230.072879,19.505577,386.340681-.245431" transform="matrix(.097781 0 0 1 360.687564 804.630095)" fill="none" stroke="#7a8e68" stroke-width="3"/><path d="M-200,0c86.324393,11.782619,270.904631,14.62167,386.340681-.245431" transform="matrix(.097781 0 0 1.169903 389.754871 766.124754)" fill="none" stroke="#7a8e68" stroke-width="3"/><path d="M-200,0c55.237016,15.221462,243.007763,17.594011,386.340681-.245431" transform="matrix(.097781 0 0 1 300.78601 728.09601)" fill="none" stroke="#7a8e68" stroke-width="3"/><path d="M-200,0c93.626121,14.740558,287.224073,21.913738,386.340681-.245431" transform="matrix(.097781 0 0 1 384.200807 718.936739)" fill="none" stroke="#7a8e68" stroke-width="3"/><line x1="-200" y1="0" x2="200" y2="0" transform="matrix(0 0.082704-1 0 342.45457 949.866656)" fill="none" stroke="#65381c" stroke-width="3"/><line x1="-200" y1="0" x2="200" y2="0" transform="matrix(0 0.07014-1 0 356.024099 876.993255)" fill="none" stroke="#65381c" stroke-width="3"/><line x1="-200" y1="0" x2="200" y2="0" transform="matrix(0 0.065113-1 0 352.506074 960.92331)" fill="none" stroke="#65381c" stroke-width="3"/><line x1="-200" y1="0" x2="200" y2="0" transform="matrix(0 0.102729-1 0 350.586832 918.189151)" fill="none" stroke="#65381c" stroke-width="3"/></g><g transform="translate(2888.740012 32.072078)"><path d="M333.550311,989.801133h26.602089l1.900149-155.099683-27.077127-.475038-1.425111,155.574721Z" transform="translate(.000001 0.000001)" fill="#815020" stroke="#65381c" stroke-width="4"/><path d="" fill="none" stroke="#3f5787" stroke-width="8"/><path d="M335.335997,835.981728c-17.987474,9.152777-42.39861,3.638559-48.050364-12.866882-16.150025-1.185256-36.463843-9.380137-29.235638-32.894566-11.677166-16.007127-14.074889-43.358676-.338974-54.574765-4.945388-16.344702,6.929252-36.150178,29.124466-37.999185c4.861723-22.330925,36.687699-29.224417,64.828493-19.197771c13.67351-9.813568,37.374329-6.488335,45.138842,10.729725c19.359544-3.578473,40.750526,4.515439,36.99905,27.749288c20.050578,4.468134,15.0203,39.273261,3.699905,55.498575c10.861609,11.195564-1.476945,42.646049-19.239506,45.508832c2.199861,18.952372-41.657349,32.319754-52.632904,17.076286-8.701885,11.353627-23.735674,6.598814-30.29337.970463Z" transform="translate(-7.067939 6.934776)" fill="#a3be8c" stroke="#7a8e68" stroke-width="8"/><line x1="-200" y1="0" x2="200" y2="0" transform="matrix(0 0.097781-1 0 342.45457 882.019007)" fill="none" stroke="#65381c" stroke-width="3"/><path d="M-200,0c86.825741,13.923397,277.041962,17.161653,386.340681-.245431" transform="matrix(.097781 0 0 1 285.89414 784.02936)" fill="none" stroke="#7a8e68" stroke-width="3"/><path d="M-200,0c75.793346,14.013632,230.072879,19.505577,386.340681-.245431" transform="matrix(.097781 0 0 1 351.849193 759.554402)" fill="none" stroke="#7a8e68" stroke-width="3"/><path d="M-200,0c86.324393,11.782619,270.904631,14.62167,386.340681-.245431" transform="matrix(.097781 0 0 1.169903 400.360916 783.359578)" fill="none" stroke="#7a8e68" stroke-width="3"/><path d="M-200,0c55.237016,15.221462,243.007763,17.594011,386.340681-.245431" transform="matrix(.097781 0 0 1 300.78601 728.09601)" fill="none" stroke="#7a8e68" stroke-width="3"/><path d="M-200,0c93.626121,14.740558,287.224073,21.913738,386.340681-.245431" transform="matrix(.097781 0 0 1 372.269006 716.727147)" fill="none" stroke="#7a8e68" stroke-width="3"/><line x1="-200" y1="0" x2="200" y2="0" transform="matrix(0 0.082704-1 0 342.45457 949.866656)" fill="none" stroke="#65381c" stroke-width="3"/><line x1="-200" y1="0" x2="200" y2="0" transform="matrix(0 0.07014-1 0 356.024099 876.993255)" fill="none" stroke="#65381c" stroke-width="3"/><line x1="-200" y1="0" x2="200" y2="0" transform="matrix(0 0.065113-1 0 352.506074 960.92331)" fill="none" stroke="#65381c" stroke-width="3"/><line x1="-200" y1="0" x2="200" y2="0" transform="matrix(0 0.102729-1 0 350.586832 918.189151)" fill="none" stroke="#65381c" stroke-width="3"/></g><g transform="translate(.000001 0.000001)"><path d="M0,1000v-9.442587v0l3.29277-37.365237l6.693745-17.935402-2.495006,18.235312.89973,33.889823l7.757359-25.86368l3.939129,26.16359l6.127445-30.837357l6.619908,33.712951l5.018523-47.189589l6.777669,47.189589l6.777668-31.213655l4.915296,31.213655l6.204683-35.530011l4.875108,34.790542l5.318299-36.784904l6.86947-10.636599-3.102341,10.636599l2.077313,37.524373L84.6885,957.686552l6.204682,32.574584l5.3183-34.568946l1.188783,34.865244l3.663144-19.970482l3.29901,19.494146l2.999099-48.88532l3.918479,49.361635l6.878279-42.463706l1.799459,40.487841l3.805464-12.028661l1.715979,14.004526l8.493198-23.563837l1.658941,23.563837l7.119574-25.96866l2.699189,24.892525l5.698289-27.591714l5.998199,26.991894l2.999099-29.990993l4.04815-19.879714v51.546683l4.005333-13.480072l4.842644,12.104006.42655-29.83761l8.912973,31.213676v-47.18961l12.4375,47.18961l9.088228-40.298705l5.349272,40.298705l5.575852-36.134827v-11.054782l2.767471,10.760227l3.594177,36.429382l4.056168-23.020386l4.118973-13.438293v13.764038l2.887359,22.694641l5.111695-47.189609l5.075805,47.189609l6.003985-40.626736l3.746023,40.626706l3.788235-14.4784l4.649249,14.4784l1.777029-35.973194l5.972971,35.973194l3.584198-41.721314-1.358124-11.093161l2.814484,10.463889l2.709442,42.350586l6.220652-29.546915l2.216848,29.546915l5.539005-41.734685l5.335995,41.734685-.017695-42.842664l8.892695,42.842664l6.840607-37.74596.909393,37.74596l3.54541-14.317566l6.223406-16.567405-.839037,17.667075l2.792501,13.588349l3.581351-28.325228.651155-22.790413l2.279041,22.139258v28.60596l5.860392-24.699032l3.889607,24.699002l2.62194-33.815167l7.50306,33.815167l4.217724-48.791724l4.532276,48.791724l7.514085-20.792074l1.923415,20.792074l6.216018-37.07094l3.596482,37.07094l5.845261-24.047847l4.217239,24.047847l2.294308-27.629198l4.893192,27.629198l2.269509-37.396518l5.542991,37.396518l5.201061-21.443228l2.923939,21.443228l2.936453-42.280178l4.563547,42.280178l4.227041-27.629198l3.897959,27.629198l6.520516-22.745538.979484,22.745538l2.492676-20.096009-1.193119-19.253973l4.74805,19.903326l1.139893,19.446656l4.204955-29.582662l3.607545,29.582662l1.888916-16.265687l6.224323-23.084295-1.859668,23.449042l1.183929,15.90094l4.582667-20.140919l2.292333,20.140919l2.916904-31.536126l5.208096,31.536126l6.512688-32.838435l1.299812,32.838435l2.442169-23.686951l5.048607-19.244381-1.596336,21.158138l1.29306,21.773194l5.838091-25.350156.349409,25.350156l6.225766-44.565953l2.836734,44.565953l3.092038-19.53336l3.157962,19.53336l2.441434-11.079371l2.621066,11.079371.89228-25.571924l3.17022,25.571924l2.538968-30.732152l3.398532,30.732152l3.518368-41.491775l1.669132,41.491775l3.930264-25.35234.132236,25.35234l4.369239-43.468032.005761,43.468032l5.593634-23.705459-.656134,23.705459l7.133867-34.684666-.196367,34.684666l4.018604-28.682422l2.043896,28.682422l2.91095-29.795655l4.62186-14.547757-2.427585,14.529935l1.582275,29.813477l3.158525-18.738125l2.153975,18.738125l2.793396-19.930176l6.382918-15.012013-2.984847,15.497608l1.433533,19.444581l4.38496-11.422932l1.61504,11.422932l4.123092-28.566486l2.251908,28.566486l3.165405-34.919312-2.357617-8.979118l4.000623,9.236015l2.879089,34.662415l4.422831-20.314384.952169,20.314384l3.942633-33.752841l2.244867,33.752841l3.895885-45.856351.979115,45.856351l4.182676-30.370977l1.067324,30.370977l4.465566-41.607305l5.659434,41.607305l4.216457-26.491146l5.441817,26.60444l2.217037-36.883428l5.032953,36.883171l4.56276.257416v9.072143L0,1000" transform="translate(3136.094602 14.793546)" fill="#a3be8c" stroke="#7a8e68" stroke-width="2.5" stroke-linecap="round" stroke-linejoin="round"/><path d="M0,1000v-9.442587v0l3.29277-37.365237l6.693745-17.935402-2.495006,18.235312.89973,33.889823l7.757359-25.86368l3.939129,26.16359l6.127445-30.837357l6.619908,33.712951l5.018523-47.189589l6.777669,47.189589l6.777668-31.213655l4.915296,31.213655l6.204683-35.530011l4.875108,34.790542l5.318299-36.784904l6.86947-10.636599-3.102341,10.636599l2.077313,37.524373L84.6885,957.686552l6.204682,32.574584l5.3183-34.568946l1.188783,34.865244l3.663144-19.970482l3.29901,19.494146l2.999099-48.88532l3.918479,49.361635l6.878279-42.463706l1.799459,40.487841l3.805464-12.028661l1.715979,14.004526l8.493198-23.563837l1.658941,23.563837l7.119574-25.96866l2.699189,24.892525l5.698289-27.591714l5.998199,26.991894l2.999099-29.990993l4.04815-19.879714v51.546683l4.005333-13.480072l4.842644,12.104006.42655-29.83761l8.912973,31.213676v-47.18961l12.4375,47.18961l9.088228-40.298705l5.349272,40.298705l5.575852-36.134827v-11.054782l2.767471,10.760227l3.594177,36.429382l4.056168-23.020386l4.118973-13.438293v13.764038l2.887359,22.694641l5.111695-47.189609l5.075805,47.189609l6.003985-40.626736l3.746023,40.626706l3.788235-14.4784l4.649249,14.4784l1.777029-35.973194l5.972971,35.973194l3.584198-41.721314-1.358124-11.093161l2.814484,10.463889l2.709442,42.350586l6.220652-29.546915l2.216848,29.546915l5.539005-41.734685l5.335995,41.734685-.017695-42.842664l8.892695,42.842664l6.840607-37.74596.909393,37.74596l3.54541-14.317566l6.223406-16.567405-.839037,17.667075l2.792501,13.588349l3.581351-28.325228.651155-22.790413l2.279041,22.139258v28.60596l5.860392-24.699032l3.889607,24.699002l2.62194-33.815167l7.50306,33.815167l4.217724-48.791724l4.532276,48.791724l7.514085-20.792074l1.923415,20.792074l6.216018-37.07094l3.596482,37.07094l5.845261-24.047847l4.217239,24.047847l2.294308-27.629198l4.893192,27.629198l2.269509-37.396518l5.542991,37.396518l5.201061-21.443228l2.923939,21.443228l2.936453-42.280178l4.563547,42.280178l4.227041-27.629198l3.897959,27.629198l6.520516-22.745538.979484,22.745538l2.492676-20.096009-1.193119-19.253973l4.74805,19.903326l1.139893,19.446656l4.204955-29.582662l3.607545,29.582662l1.888916-16.265687l6.224323-23.084295-1.859668,23.449042l1.183929,15.90094l4.582667-20.140919l2.292333,20.140919l2.916904-31.536126l5.208096,31.536126l6.512688-32.838435l1.299812,32.838435l2.442169-23.686951l5.048607-19.244381-1.596336,21.158138l1.29306,21.773194l5.838091-25.350156.349409,25.350156l6.225766-44.565953l2.836734,44.565953l3.092038-19.53336l3.157962,19.53336l2.441434-11.079371l2.621066,11.079371.89228-25.571924l3.17022,25.571924l2.538968-30.732152l3.398532,30.732152l3.518368-41.491775l1.669132,41.491775l3.930264-25.35234.132236,25.35234l4.369239-43.468032.005761,43.468032l5.593634-23.705459-.656134,23.705459l7.133867-34.684666-.196367,34.684666l4.018604-28.682422l2.043896,28.682422l2.91095-29.795655l4.62186-14.547757-2.427585,14.529935l1.582275,29.813477l3.158525-18.738125l2.153975,18.738125l2.793396-19.930176l6.382918-15.012013-2.984847,15.497608l1.433533,19.444581l4.38496-11.422932l1.61504,11.422932l4.123092-28.566486l2.251908,28.566486l3.165405-34.919312-2.357617-8.979118l4.000623,9.236015l2.879089,34.662415l4.422831-20.314384.952169,20.314384l3.942633-33.752841l2.244867,33.752841l3.895885-45.856351.979115,45.856351l4.182676-30.370977l1.067324,30.370977l4.465566-41.607305l5.659434,41.607305l4.216457-26.491146l5.441817,26.60444l2.217037-36.883428l5.032953,36.883171l4.56276.257416v9.072143L0,1000" transform="translate(2493.582944 13.017705)" fill="#a3be8c" stroke="#7a8e68" stroke-width="2.5" stroke-linecap="round" stroke-linejoin="round"/><path d="M0,1000v-9.442587v0l3.29277-37.365237l6.693745-17.935402-2.495006,18.235312.89973,33.889823l7.757359-25.86368l3.939129,26.16359l6.127445-30.837357l6.619908,33.712951l5.018523-47.189589l6.777669,47.189589l6.777668-31.213655l4.915296,31.213655l6.204683-35.530011l4.875108,34.790542l5.318299-36.784904l6.86947-10.636599-3.102341,10.636599l2.077313,37.524373L84.6885,957.686552l6.204682,32.574584l5.3183-34.568946l1.188783,34.865244l3.663144-19.970482l3.29901,19.494146l2.999099-48.88532l3.918479,49.361635l6.878279-42.463706l1.799459,40.487841l3.805464-12.028661l1.715979,14.004526l8.493198-23.563837l1.658941,23.563837l7.119574-25.96866l2.699189,24.892525l5.698289-27.591714l5.998199,26.991894l2.999099-29.990993l4.04815-19.879714v51.546683l4.005333-13.480072l4.842644,12.104006.42655-29.83761l8.912973,31.213676v-47.18961l12.4375,47.18961l9.088228-40.298705l5.349272,40.298705l5.575852-36.134827v-11.054782l2.767471,10.760227l3.594177,36.429382l4.056168-23.020386l4.118973-13.438293v13.764038l2.887359,22.694641l5.111695-47.189609l5.075805,47.189609l6.003985-40.626736l3.746023,40.626706l3.788235-14.4784l4.649249,14.4784l1.777029-35.973194l5.972971,35.973194l3.584198-41.721314-1.358124-11.093161l2.814484,10.463889l2.709442,42.350586l6.220652-29.546915l2.216848,29.546915l5.539005-41.734685l5.335995,41.734685-.017695-42.842664l8.892695,42.842664l6.840607-37.74596.909393,37.74596l3.54541-14.317566l6.223406-16.567405-.839037,17.667075l2.792501,13.588349l3.581351-28.325228.651155-22.790413l2.279041,22.139258v28.60596l5.860392-24.699032l3.889607,24.699002l2.62194-33.815167l7.50306,33.815167l4.217724-48.791724l4.532276,48.791724l7.514085-20.792074l1.923415,20.792074l6.216018-37.07094l3.596482,37.07094l5.845261-24.047847l4.217239,24.047847l2.294308-27.629198l4.893192,27.629198l2.269509-37.396518l5.542991,37.396518l5.201061-21.443228l2.923939,21.443228l2.936453-42.280178l4.563547,42.280178l4.227041-27.629198l3.897959,27.629198l6.520516-22.745538.979484,22.745538l2.492676-20.096009-1.193119-19.253973l4.74805,19.903326l1.139893,19.446656l4.204955-29.582662l3.607545,29.582662l1.888916-16.265687l6.224323-23.084295-1.859668,23.449042l1.183929,15.90094l4.582667-20.140919l2.292333,20.140919l2.916904-31.536126l5.208096,31.536126l6.512688-32.838435l1.299812,32.838435l2.442169-23.686951l5.048607-19.244381-1.596336,21.158138l1.29306,21.773194l5.838091-25.350156.349409,25.350156l6.225766-44.565953l2.836734,44.565953l3.092038-19.53336l3.157962,19.53336l2.441434-11.079371l2.621066,11.079371.89228-25.571924l3.17022,25.571924l2.538968-30.732152l3.398532,30.732152l3.518368-41.491775l1.669132,41.491775l3.930264-25.35234.132236,25.35234l4.369239-43.468032.005761,43.468032l5.593634-23.705459-.656134,23.705459l7.133867-34.684666-.196367,34.684666l4.018604-28.682422l2.043896,28.682422l2.91095-29.795655l4.62186-14.547757-2.427585,14.529935l1.582275,29.813477l3.158525-18.738125l2.153975,18.738125l2.793396-19.930176l6.382918-15.012013-2.984847,15.497608l1.433533,19.444581l4.38496-11.422932l1.61504,11.422932l4.123092-28.566486l2.251908,28.566486l3.165405-34.919312-2.357617-8.979118l4.000623,9.236015l2.879089,34.662415l4.422831-20.314384.952169,20.314384l3.942633-33.752841l2.244867,33.752841l3.895885-45.856351.979115,45.856351l4.182676-30.370977l1.067324,30.370977l4.465566-41.607305l5.659434,41.607305l4.216457-26.491146l5.441817,26.60444l2.217037-36.883428l5.032953,36.883171l4.56276.257416v9.072143L0,1000" transform="translate(1849.441973 15.304396)" fill="#a3be8c" stroke="#7a8e68" stroke-width="2.5" stroke-linecap="round" stroke-linejoin="round"/><path d="M0,1000v-9.442587v0l3.29277-37.365237l6.693745-17.935402-2.495006,18.235312.89973,33.889823l7.757359-25.86368l3.939129,26.16359l6.127445-30.837357l6.619908,33.712951l5.018523-47.189589l6.777669,47.189589l6.777668-31.213655l4.915296,31.213655l6.204683-35.530011l4.875108,34.790542l5.318299-36.784904l6.86947-10.636599-3.102341,10.636599l2.077313,37.524373L84.6885,957.686552l6.204682,32.574584l5.3183-34.568946l1.188783,34.865244l3.663144-19.970482l3.29901,19.494146l2.999099-48.88532l3.918479,49.361635l6.878279-42.463706l1.799459,40.487841l3.805464-12.028661l1.715979,14.004526l8.493198-23.563837l1.658941,23.563837l7.119574-25.96866l2.699189,24.892525l5.698289-27.591714l5.998199,26.991894l2.999099-29.990993l4.04815-19.879714v51.546683l4.005333-13.480072l4.842644,12.104006.42655-29.83761l8.912973,31.213676v-47.18961l12.4375,47.18961l9.088228-40.298705l5.349272,40.298705l5.575852-36.134827v-11.054782l2.767471,10.760227l3.594177,36.429382l4.056168-23.020386l4.118973-13.438293v13.764038l2.887359,22.694641l5.111695-47.189609l5.075805,47.189609l6.003985-40.626736l3.746023,40.626706l3.788235-14.4784l4.649249,14.4784l1.777029-35.973194l5.972971,35.973194l3.584198-41.721314-1.358124-11.093161l2.814484,10.463889l2.709442,42.350586l6.220652-29.546915l2.216848,29.546915l5.539005-41.734685l5.335995,41.734685-.017695-42.842664l8.892695,42.842664l6.840607-37.74596.909393,37.74596l3.54541-14.317566l6.223406-16.567405-.839037,17.667075l2.792501,13.588349l3.581351-28.325228.651155-22.790413l2.279041,22.139258v28.60596l5.860392-24.699032l3.889607,24.699002l2.62194-33.815167l7.50306,33.815167l4.217724-48.791724l4.532276,48.791724l7.514085-20.792074l1.923415,20.792074l6.216018-37.07094l3.596482,37.07094l5.845261-24.047847l4.217239,24.047847l2.294308-27.629198l4.893192,27.629198l2.269509-37.396518l5.542991,37.396518l5.201061-21.443228l2.923939,21.443228l2.936453-42.280178l4.563547,42.280178l4.227041-27.629198l3.897959,27.629198l6.520516-22.745538.979484,22.745538l2.492676-20.096009-1.193119-19.253973l4.74805,19.903326l1.139893,19.446656l4.204955-29.582662l3.607545,29.582662l1.888916-16.265687l6.224323-23.084295-1.859668,23.449042l1.183929,15.90094l4.582667-20.140919l2.292333,20.140919l2.916904-31.536126l5.208096,31.536126l6.512688-32.838435l1.299812,32.838435l2.442169-23.686951l5.048607-19.244381-1.596336,21.158138l1.29306,21.773194l5.838091-25.350156.349409,25.350156l6.225766-44.565953l2.836734,44.565953l3.092038-19.53336l3.157962,19.53336l2.441434-11.079371l2.621066,11.079371.89228-25.571924l3.17022,25.571924l2.538968-30.732152l3.398532,30.732152l3.518368-41.491775l1.669132,41.491775l3.930264-25.35234.132236,25.35234l4.369239-43.468032.005761,43.468032l5.593634-23.705459-.656134,23.705459l7.133867-34.684666-.196367,34.684666l4.018604-28.682422l2.043896,28.682422l2.91095-29.795655l4.62186-14.547757-2.427585,14.529935l1.582275,29.813477l3.158525-18.738125l2.153975,18.738125l2.793396-19.930176l6.382918-15.012013-2.984847,15.497608l1.433533,19.444581l4.38496-11.422932l1.61504,11.422932l4.123092-28.566486l2.251908,28.566486l3.165405-34.919312-2.357617-8.979118l4.000623,9.236015l2.879089,34.662415l4.422831-20.314384.952169,20.314384l3.942633-33.752841l2.244867,33.752841l3.895885-45.856351.979115,45.856351l4.182676-30.370977l1.067324,30.370977l4.465566-41.607305l5.659434,41.607305l4.216457-26.491146l5.441817,26.60444l2.217037-36.883428l5.032953,36.883171l4.56276.257416v9.072143L0,1000" transform="translate(1205.647731 10.371107)" fill="#a3be8c" stroke="#7a8e68" stroke-width="2.5" stroke-linecap="round" stroke-linejoin="round"/><path d="M0,1000v-9.442587v0l3.29277-37.365237l6.693745-17.935402-2.495006,18.235312.89973,33.889823l7.757359-25.86368l3.939129,26.16359l6.127445-30.837357l6.619908,33.712951l5.018523-47.189589l6.777669,47.189589l6.777668-31.213655l4.915296,31.213655l6.204683-35.530011l4.875108,34.790542l5.318299-36.784904l6.86947-10.636599-3.102341,10.636599l2.077313,37.524373L84.6885,957.686552l6.204682,32.574584l5.3183-34.568946l1.188783,34.865244l3.663144-19.970482l3.29901,19.494146l2.999099-48.88532l3.918479,49.361635l6.878279-42.463706l1.799459,40.487841l3.805464-12.028661l1.715979,14.004526l8.493198-23.563837l1.658941,23.563837l7.119574-25.96866l2.699189,24.892525l5.698289-27.591714l5.998199,26.991894l2.999099-29.990993l4.04815-19.879714v51.546683l4.005333-13.480072l4.842644,12.104006.42655-29.83761l8.912973,31.213676v-47.18961l12.4375,47.18961l9.088228-40.298705l5.349272,40.298705l5.575852-36.134827v-11.054782l2.767471,10.760227l3.594177,36.429382l4.056168-23.020386l4.118973-13.438293v13.764038l2.887359,22.694641l5.111695-47.189609l5.075805,47.189609l6.003985-40.626736l3.746023,40.626706l3.788235-14.4784l4.649249,14.4784l1.777029-35.973194l5.972971,35.973194l3.584198-41.721314-1.358124-11.093161l2.814484,10.463889l2.709442,42.350586l6.220652-29.546915l2.216848,29.546915l5.539005-41.734685l5.335995,41.734685-.017695-42.842664l8.892695,42.842664l6.840607-37.74596.909393,37.74596l3.54541-14.317566l6.223406-16.567405-.839037,17.667075l2.792501,13.588349l3.581351-28.325228.651155-22.790413l2.279041,22.139258v28.60596l5.860392-24.699032l3.889607,24.699002l2.62194-33.815167l7.50306,33.815167l4.217724-48.791724l4.532276,48.791724l7.514085-20.792074l1.923415,20.792074l6.216018-37.07094l3.596482,37.07094l5.845261-24.047847l4.217239,24.047847l2.294308-27.629198l4.893192,27.629198l2.269509-37.396518l5.542991,37.396518l5.201061-21.443228l2.923939,21.443228l2.936453-42.280178l4.563547,42.280178l4.227041-27.629198l3.897959,27.629198l6.520516-22.745538.979484,22.745538l2.492676-20.096009-1.193119-19.253973l4.74805,19.903326l1.139893,19.446656l4.204955-29.582662l3.607545,29.582662l1.888916-16.265687l6.224323-23.084295-1.859668,23.449042l1.183929,15.90094l4.582667-20.140919l2.292333,20.140919l2.916904-31.536126l5.208096,31.536126l6.512688-32.838435l1.299812,32.838435l2.442169-23.686951l5.048607-19.244381-1.596336,21.158138l1.29306,21.773194l5.838091-25.350156.349409,25.350156l6.225766-44.565953l2.836734,44.565953l3.092038-19.53336l3.157962,19.53336l2.441434-11.079371l2.621066,11.079371.89228-25.571924l3.17022,25.571924l2.538968-30.732152l3.398532,30.732152l3.518368-41.491775l1.669132,41.491775l3.930264-25.35234.132236,25.35234l4.369239-43.468032.005761,43.468032l5.593634-23.705459-.656134,23.705459l7.133867-34.684666-.196367,34.684666l4.018604-28.682422l2.043896,28.682422l2.91095-29.795655l4.62186-14.547757-2.427585,14.529935l1.582275,29.813477l3.158525-18.738125l2.153975,18.738125l2.793396-19.930176l6.382918-15.012013-2.984847,15.497608l1.433533,19.444581l4.38496-11.422932l1.61504,11.422932l4.123092-28.566486l2.251908,28.566486l3.165405-34.919312-2.357617-8.979118l4.000623,9.236015l2.879089,34.662415l4.422831-20.314384.952169,20.314384l3.942633-33.752841l2.244867,33.752841l3.895885-45.856351.979115,45.856351l4.182676-30.370977l1.067324,30.370977l4.465566-41.607305l5.659434,41.607305l4.216457-26.491146l5.441817,26.60444l2.217037-36.883428l5.032953,36.883171l4.56276.257416v9.072143L0,1000" transform="translate(.221596 7.113617)" fill="#a3be8c" stroke="#7a8e68" stroke-width="2.5" stroke-linecap="round" stroke-linejoin="round"/><path d="M0,1000v-9.442587v0l3.29277-37.365237l6.693745-17.935402-2.495006,18.235312.89973,33.889823l7.757359-25.86368l3.939129,26.16359l6.127445-30.837357l6.619908,33.712951l5.018523-47.189589l6.777669,47.189589l6.777668-31.213655l4.915296,31.213655l6.204683-35.530011l4.875108,34.790542l5.318299-36.784904l6.86947-10.636599-3.102341,10.636599l2.077313,37.524373L84.6885,957.686552l6.204682,32.574584l5.3183-34.568946l1.188783,34.865244l3.663144-19.970482l3.29901,19.494146l2.999099-48.88532l3.918479,49.361635l6.878279-42.463706l1.799459,40.487841l3.805464-12.028661l1.715979,14.004526l8.493198-23.563837l1.658941,23.563837l7.119574-25.96866l2.699189,24.892525l5.698289-27.591714l5.998199,26.991894l2.999099-29.990993l4.04815-19.879714v51.546683l4.005333-13.480072l4.842644,12.104006.42655-29.83761l8.912973,31.213676v-47.18961l12.4375,47.18961l9.088228-40.298705l5.349272,40.298705l5.575852-36.134827v-11.054782l2.767471,10.760227l3.594177,36.429382l4.056168-23.020386l4.118973-13.438293v13.764038l2.887359,22.694641l5.111695-47.189609l5.075805,47.189609l6.003985-40.626736l3.746023,40.626706l3.788235-14.4784l4.649249,14.4784l1.777029-35.973194l5.972971,35.973194l3.584198-41.721314-1.358124-11.093161l2.814484,10.463889l2.709442,42.350586l6.220652-29.546915l2.216848,29.546915l5.539005-41.734685l5.335995,41.734685-.017695-42.842664l8.892695,42.842664l6.840607-37.74596.909393,37.74596l3.54541-14.317566l6.223406-16.567405-.839037,17.667075l2.792501,13.588349l3.581351-28.325228.651155-22.790413l2.279041,22.139258v28.60596l5.860392-24.699032l3.889607,24.699002l2.62194-33.815167l7.50306,33.815167l4.217724-48.791724l4.532276,48.791724l7.514085-20.792074l1.923415,20.792074l6.216018-37.07094l3.596482,37.07094l5.845261-24.047847l4.217239,24.047847l2.294308-27.629198l4.893192,27.629198l2.269509-37.396518l5.542991,37.396518l5.201061-21.443228l2.923939,21.443228l2.936453-42.280178l4.563547,42.280178l4.227041-27.629198l3.897959,27.629198l6.520516-22.745538.979484,22.745538l2.492676-20.096009-1.193119-19.253973l4.74805,19.903326l1.139893,19.446656l4.204955-29.582662l3.607545,29.582662l1.888916-16.265687l6.224323-23.084295-1.859668,23.449042l1.183929,15.90094l4.582667-20.140919l2.292333,20.140919l2.916904-31.536126l5.208096,31.536126l6.512688-32.838435l1.299812,32.838435l2.442169-23.686951l5.048607-19.244381-1.596336,21.158138l1.29306,21.773194l5.838091-25.350156.349409,25.350156l6.225766-44.565953l2.836734,44.565953l3.092038-19.53336l3.157962,19.53336l2.441434-11.079371l2.621066,11.079371.89228-25.571924l3.17022,25.571924l2.538968-30.732152l3.398532,30.732152l3.518368-41.491775l1.669132,41.491775l3.930264-25.35234.132236,25.35234l4.369239-43.468032.005761,43.468032l5.593634-23.705459-.656134,23.705459l7.133867-34.684666-.196367,34.684666l4.018604-28.682422l2.043896,28.682422l2.91095-29.795655l4.62186-14.547757-2.427585,14.529935l1.582275,29.813477l3.158525-18.738125l2.153975,18.738125l2.793396-19.930176l6.382918-15.012013-2.984847,15.497608l1.433533,19.444581l4.38496-11.422932l1.61504,11.422932l4.123092-28.566486l2.251908,28.566486l3.165405-34.919312-2.357617-8.979118l4.000623,9.236015l2.879089,34.662415l4.422831-20.314384.952169,20.314384l3.942633-33.752841l2.244867,33.752841l3.895885-45.856351.979115,45.856351l4.182676-30.370977l1.067324,30.370977l4.465566-41.607305l5.659434,41.607305l4.216457-26.491146l5.441817,26.60444l2.217037-36.883428l5.032953,36.883171l4.56276.257416v9.072143L0,1000" transform="translate(3780.123321 15.618166)" fill="#a3be8c" stroke="#7a8e68" stroke-width="2.5" stroke-linecap="round" stroke-linejoin="round"/><path d="M0,1000v-9.442587v0l3.29277-37.365237l6.693745-17.935402-2.495006,18.235312.89973,33.889823l7.757359-25.86368l3.939129,26.16359l6.127445-30.837357l6.619908,33.712951l5.018523-47.189589l6.777669,47.189589l6.777668-31.213655l4.915296,31.213655l6.204683-35.530011l4.875108,34.790542l5.318299-36.784904l6.86947-10.636599-3.102341,10.636599l2.077313,37.524373L84.6885,957.686552l6.204682,32.574584l5.3183-34.568946l1.188783,34.865244l3.663144-19.970482l3.29901,19.494146l2.999099-48.88532l3.918479,49.361635l6.878279-42.463706l1.799459,40.487841l3.805464-12.028661l1.715979,14.004526l8.493198-23.563837l1.658941,23.563837l7.119574-25.96866l2.699189,24.892525l5.698289-27.591714l5.998199,26.991894l2.999099-29.990993l4.04815-19.879714v51.546683l4.005333-13.480072l4.842644,12.104006.42655-29.83761l8.912973,31.213676v-47.18961l12.4375,47.18961l9.088228-40.298705l5.349272,40.298705l5.575852-36.134827v-11.054782l2.767471,10.760227l3.594177,36.429382l4.056168-23.020386l4.118973-13.438293v13.764038l2.887359,22.694641l5.111695-47.189609l5.075805,47.189609l6.003985-40.626736l3.746023,40.626706l3.788235-14.4784l4.649249,14.4784l1.777029-35.973194l5.972971,35.973194l3.584198-41.721314-1.358124-11.093161l2.814484,10.463889l2.709442,42.350586l6.220652-29.546915l2.216848,29.546915l5.539005-41.734685l5.335995,41.734685-.017695-42.842664l8.892695,42.842664l6.840607-37.74596.909393,37.74596l3.54541-14.317566l6.223406-16.567405-.839037,17.667075l2.792501,13.588349l3.581351-28.325228.651155-22.790413l2.279041,22.139258v28.60596l5.860392-24.699032l3.889607,24.699002l2.62194-33.815167l7.50306,33.815167l4.217724-48.791724l4.532276,48.791724l7.514085-20.792074l1.923415,20.792074l6.216018-37.07094l3.596482,37.07094l5.845261-24.047847l4.217239,24.047847l2.294308-27.629198l4.893192,27.629198l2.269509-37.396518l5.542991,37.396518l5.201061-21.443228l2.923939,21.443228l2.936453-42.280178l4.563547,42.280178l4.227041-27.629198l3.897959,27.629198l6.520516-22.745538.979484,22.745538l2.492676-20.096009-1.193119-19.253973l4.74805,19.903326l1.139893,19.446656l4.204955-29.582662l3.607545,29.582662l1.888916-16.265687l6.224323-23.084295-1.859668,23.449042l1.183929,15.90094l4.582667-20.140919l2.292333,20.140919l2.916904-31.536126l5.208096,31.536126l6.512688-32.838435l1.299812,32.838435l2.442169-23.686951l5.048607-19.244381-1.596336,21.158138l1.29306,21.773194l5.838091-25.350156.349409,25.350156l6.225766-44.565953l2.836734,44.565953l3.092038-19.53336l3.157962,19.53336l2.441434-11.079371l2.621066,11.079371.89228-25.571924l3.17022,25.571924l2.538968-30.732152l3.398532,30.732152l3.518368-41.491775l1.669132,41.491775l3.930264-25.35234.132236,25.35234l4.369239-43.468032.005761,43.468032l5.593634-23.705459-.656134,23.705459l7.133867-34.684666-.196367,34.684666l4.018604-28.682422l2.043896,28.682422l2.91095-29.795655l4.62186-14.547757-2.427585,14.529935l1.582275,29.813477l3.158525-18.738125l2.153975,18.738125l2.793396-19.930176l6.382918-15.012013-2.984847,15.497608l1.433533,19.444581l4.38496-11.422932l1.61504,11.422932l4.123092-28.566486l2.251908,28.566486l3.165405-34.919312-2.357617-8.979118l4.000623,9.236015l2.879089,34.662415l4.422831-20.314384.952169,20.314384l3.942633-33.752841l2.244867,33.752841l3.895885-45.856351.979115,45.856351l4.182676-30.370977l1.067324,30.370977l4.465566-41.607305l5.659434,41.607305l4.216457-26.491146l5.441817,26.60444l2.217037-36.883428l5.032953,36.883171l4.56276.257416v9.072143L0,1000" transform="translate(560.873013 7.377768)" fill="#a3be8c" stroke="#7a8e68" stroke-width="2.5" stroke-linecap="round" stroke-linejoin="round"/></g></svg>