<svg id="ebshzSYDpo51" xmlns="http://www.w3.org/2000/svg" xmlns:xlink="http://www.w3.org/1999/xlink" viewBox="0 0 4000 1000" shape-rendering="geometricPrecision" text-rendering="geometricPrecision"><path d="M-0.000003,585.079998c43.752297-6.807517,243.866455-195.495203,367.490153-358.867564C514.008618,380.472032,713.760785,527.695377,757.872848,536.067758c44.650819-33.261306,221.653011-196.005209,301.102349-353.620201c144.622511,157.993039,302.768269,320.358895,338.982761,320.358895c44.122469-7.851887,244.636645-167.324085,366.507046-344.867225c148.119182,175.478766,363.258937,379.990653,409.639243,378.128531c13.135749-17.61828,297.363353-161.136718,427.145194-301.102349c17.731445,40.835056,209.634177,224.709209,398.750556,350.119011" transform="translate(.000003 415.567839)" fill="#81a1c1" stroke="#3f5787" stroke-width="6" stroke-linecap="round" stroke-linejoin="round"/><path d="M284.457071,743.428928c16.052505-8.872827,43.240064-30.246175,61.252842-13.052159c27.592493,25.557541,33.133986-10.292498,56.841295-10.115207c16.257105-1.325423,60.312956,27.731093,66.306617,20.408253L367.490153,641.780271L284.457071,743.428928Z" transform="translate(0 0.000001)" fill="#eceff4" stroke="#3f5787" stroke-width="4" stroke-linecap="round" stroke-linejoin="round"/><path d="M979.757629,720.261562c15.107364,1.355521,48.539205-.529709,58.452619-13.229379c20.764951-16.105329,33.240021-2.098737,40.278396,10.899823c11.978527,14.517668,30.470015,25.496922,50.026486,8.081459c11.503807-18.981282,21.175406-17.732947,40.131814-11.074007L1058.975199,598.015394l-79.21757,122.246168Z" transform="translate(.000003 0.000001)" fill="#eceff4" stroke="#3f5787" stroke-width="4" stroke-linecap="round" stroke-linejoin="round"/><path d="M1632.457301,734.872682c4.794299,26.393656,13.744891,36.768709,51.568309,33.174411c30.891469-1.8504,21.526645-47.785531,80.439397-16.996889c22.119855,14.207871,61.554499,16.547454,61.542142-58.445604c44.435985,51.949032,76.745756,47.307581,85.754194,42.268082L1764.465007,573.507065L1632.457301,734.872682Z" transform="translate(0 0.000001)" fill="#eceff4" stroke="#3f5787" stroke-width="4" stroke-linecap="round" stroke-linejoin="round"/><path d="M2521.781771,724.818353c29.139913-2.48168,69.749326,21.023768,74.670259,51.928952c26.033997,2.194768,63.136607-12.340944,67.523789-50.733841-16.786435-15.106606-46.992007-53.136118-62.726376-75.480217l-79.467672,74.285106Z" transform="translate(.000003 1.195113)" fill="#eceff4" stroke="#3f5787" stroke-width="4" stroke-linecap="round" stroke-linejoin="round"/><g transform="matrix(.999404-.034511 0.034511 0.999404-29.625133 14.006372)"><line style="mix-blend-mode:darken" x1="0" y1="-19.723931" x2="0" y2="19.723932" transform="matrix(-.766044 0.642788 1.870428 2.22909 228.03605 917.801805)" fill="none" stroke="#5e81ac" stroke-width="3"/><line style="mix-blend-mode:darken" x1="0" y1="-19.723931" x2="0" y2="19.723932" transform="matrix(-.766044 0.642788 2.954363 3.520873 324.660103 890.556377)" fill="none" stroke="#5e81ac" stroke-width="3"/><line style="mix-blend-mode:darken" x1="0" y1="-19.723931" x2="0" y2="19.723932" transform="matrix(-.766044 0.642788 1.555109 1.853307 437.25042 922.449382)" fill="none" stroke="#5e81ac" stroke-width="3"/><line style="mix-blend-mode:darken" x1="0" y1="-19.723931" x2="0" y2="19.723932" transform="matrix(.766044-.642788 1.301376 1.55092 479.832135 838.076364)" fill="none" stroke="#5e81ac" stroke-width="3"/><line style="mix-blend-mode:darken" x1="0" y1="-19.723931" x2="0" y2="19.723932" transform="matrix(-.766044 0.642788 1.014964 1.209586 570.665621 904.268652)" fill="none" stroke="#5e81ac" stroke-width="3"/><line style="mix-blend-mode:darken" x1="0" y1="-19.723931" x2="0" y2="19.723932" transform="matrix(.766044-.642788 1.119143 1.333742 385.031162 794.865447)" fill="none" stroke="#5e81ac" stroke-width="3"/></g><g transform="matrix(.993823 0.11098-.11098 0.993823 94.874497-119.615968)"><line style="mix-blend-mode:darken" x1="0" y1="-19.723931" x2="0" y2="19.723932" transform="matrix(-.642788-.766044-1.209586 1.014964 1276.122233 894.136029)" fill="none" stroke="#5e81ac" stroke-width="3"/><line style="mix-blend-mode:darken" x1="0" y1="-19.723931" x2="0" y2="19.723932" transform="matrix(.642788 0.766044-1.55092 1.301376 1156.934469 807.486129)" fill="none" stroke="#5e81ac" stroke-width="3"/><line style="mix-blend-mode:darken" x1="0" y1="-19.723931" x2="0" y2="19.723932" transform="matrix(-.642788-.766044-1.853307 1.555109 1180.66558 897.453589)" fill="none" stroke="#5e81ac" stroke-width="3"/><line style="mix-blend-mode:darken" x1="0" y1="-19.723931" x2="0" y2="19.723932" transform="matrix(.642788 0.766044-3.342296 2.80452 1002.882622 874.309663)" fill="none" stroke="#5e81ac" stroke-width="3"/><line style="mix-blend-mode:darken" x1="0" y1="-19.723931" x2="0" y2="19.723932" transform="matrix(.642788 0.766044-2.515348 2.110628 1052.495179 928.126451)" fill="none" stroke="#5e81ac" stroke-width="3"/><line style="mix-blend-mode:darken" x1="0" y1="-19.723931" x2="0" y2="19.723932" transform="matrix(.642788 0.766044-1.333742 1.119143 980.555487 807.486128)" fill="none" stroke="#5e81ac" stroke-width="3"/></g><g transform="matrix(.998351-.057405 0.057405 0.998351-16.339336 102.98081)"><line style="mix-blend-mode:darken" x1="0" y1="-19.723931" x2="0" y2="19.723932" transform="matrix(-.5 0.866025 1.367457 0.789502 1748.251522 897.782735)" fill="none" stroke="#5e81ac" stroke-width="3"/><line style="mix-blend-mode:darken" x1="0" y1="-19.723931" x2="0" y2="19.723932" transform="matrix(-.5 0.866025 2.095193 1.20966 1826.63715 904.982525)" fill="none" stroke="#5e81ac" stroke-width="3"/><line style="mix-blend-mode:darken" x1="0" y1="-19.723931" x2="0" y2="19.723932" transform="matrix(.5-.866025 2.843641 1.641777 1961.373902 928.126452)" fill="none" stroke="#5e81ac" stroke-width="3"/><line style="mix-blend-mode:darken" x1="0" y1="-19.723931" x2="0" y2="19.723932" transform="matrix(.5-.866025 1.507817 0.870539 1642.555487 807.486128)" fill="none" stroke="#5e81ac" stroke-width="3"/><line style="mix-blend-mode:darken" x1="0" y1="-19.723931" x2="0" y2="19.723932" transform="matrix(.5-.866025 1.507817 0.870539 1543.076855 915.945675)" fill="none" stroke="#5e81ac" stroke-width="3"/><line style="mix-blend-mode:darken" x1="0" y1="-19.723931" x2="0" y2="19.723932" transform="matrix(.5-.866025 3.778519 2.181529 1642.555487 904.26865)" fill="none" stroke="#5e81ac" stroke-width="3"/><line style="mix-blend-mode:darken" x1="0" y1="-19.723931" x2="0" y2="19.723932" transform="matrix(.5-.866025 1.753339 1.012291 1806.111086 807.486129)" fill="none" stroke="#5e81ac" stroke-width="3"/></g><g transform="matrix(.996209 0.086996-.086996 0.996209 922.966843-150.633805)"><line style="mix-blend-mode:darken" x1="0" y1="-19.723931" x2="0" y2="19.723932" transform="matrix(-.707107-.707107-1.116524 1.116524 1808.713288 845.648504)" fill="none" stroke="#5e81ac" stroke-width="3"/><line style="mix-blend-mode:darken" x1="0" y1="-19.723931" x2="0" y2="19.723932" transform="matrix(-.707107-.707107-1.710718 1.710718 1874.079773 873.439435)" fill="none" stroke="#5e81ac" stroke-width="3"/><line style="mix-blend-mode:darken" x1="0" y1="-19.723931" x2="0" y2="19.723932" transform="matrix(.707107 0.707107-2.321823 2.321823 1919.303637 935.241095)" fill="none" stroke="#5e81ac" stroke-width="3"/><line style="mix-blend-mode:darken" x1="0" y1="-19.723931" x2="0" y2="19.723932" transform="matrix(.707107 0.707107-1.231127 1.231127 1642.555487 807.486128)" fill="none" stroke="#5e81ac" stroke-width="3"/><line style="mix-blend-mode:darken" x1="0" y1="-19.723931" x2="0" y2="19.723932" transform="matrix(.707107 0.707107-1.231127 1.231127 1543.076855 915.945675)" fill="none" stroke="#5e81ac" stroke-width="3"/><line style="mix-blend-mode:darken" x1="0" y1="-19.723931" x2="0" y2="19.723932" transform="matrix(.707107 0.707107-3.085148 3.085148 1681.087334 872.43648)" fill="none" stroke="#5e81ac" stroke-width="3"/><line style="mix-blend-mode:darken" x1="0" y1="-19.723931" x2="0" y2="19.723932" transform="matrix(.707107 0.707107-1.431596 1.431596 1755.896659 940.389488)" fill="none" stroke="#5e81ac" stroke-width="3"/></g><path d="M847.174489,1000c-19.864398-11.345296-63.109303-36.696538-89.301638-48.364404" fill="none" stroke="#3f5787" stroke-width="6" stroke-linecap="round" stroke-linejoin="round"/><path d="M1397.957961,918.37429c-25.501632,7.667306-91.267551,48.009768-142.324349,81.62571" fill="none" stroke="#3f5787" stroke-width="6" stroke-linecap="round" stroke-linejoin="round"/><path d="M2174.10425,951.635596c22.88901,10.230411,60.405125,35.731377,75.949127,49.608234" transform="translate(-8.084891-1.24383)" fill="none" stroke="#3f5787" stroke-width="6" stroke-linecap="round" stroke-linejoin="round"/></svg>