<svg id="eoQwespOaHD1" xmlns="http://www.w3.org/2000/svg" xmlns:xlink="http://www.w3.org/1999/xlink" viewBox="0 0 4000 1000" shape-rendering="geometricPrecision" text-rendering="geometricPrecision"><path d="M-0.000003,585.079998c43.752297-6.807517,164.807336-204.646756,288.431034-368.019117c75.381988,187.488533,206.82361,270.283046,248.922414,297.570634c55.890617-21.440008,149.197151-135.543108,244.073276-287.715517C930.963867,378.524657,1279.065939,503.31686,1306.749997,503.31686c51.543188-17.511326,211.087157-147.082107,368.534483-307.112069c148.119182,175.478766,520.657936,268.263639,571.17901,268.263639c68.00239-23.108656,267.141953-190.555392,396.923794-330.521023c157.81032,175.891305,365.058051,380.901382,572.612713,450.484755" transform="translate(-45.999997 415.567838)" fill="#5e81ac" stroke="#3f5787" stroke-width="6"/><path d="" fill="none" stroke="#3f5787" stroke-width="6"/><path d="" fill="none" stroke="#3f5787" stroke-width="6"/><path d="M449.353448,930.199353C413.940608,943.124326,349.451571,978.672303,316.48945,1000" transform="translate(42 0.000001)" fill="none" stroke="#3f5787" stroke-width="6"/><path d="M1218.75,918.884698c80.966003,21.76052,215.025219,61.002747,264.610636,81.115302" transform="translate(42 0)" fill="none" stroke="#3f5787" stroke-width="6"/><path d="M2202.043806,880.036268C2280.796009,908.571882,2337.999648,984.142798,2397.26138,1000" transform="translate(-1.580313 0)" fill="none" stroke="#3f5787" stroke-width="6"/><path d="M2444.215738,701.283255c9.615766-9.3076,109.828083-64.178573,122.55415-53.370355c14.264564,19.874325,53.417578,37.507393,72.148814,21.743478c10.060579-9.153751,112.191172,48.001051,124.530829,53.370356L2597.387287,549.515245l-153.171549,151.76801Z" fill="#e5e9f0" stroke="#3f5787" stroke-width="4"/><path d="M1495.418811,740.663385c31.112-1.952624,81.333324-14.698371,97.466028-32.933044c14.685549-16.007691,41.776991.702601,52.742232,15.296393c12.606848,17.636651,52.751582,16.667668,69.128168,0c22.195572,17.636651,62.847549,20.443116,95.252478,23.892681-55.178913-23.221123-143.447817-92.126242-180.723234-135.146786L1495.418811,740.663385Z" fill="#e5e9f0" stroke="#3f5787" stroke-width="4"/><path d="M666.856569,748.409299c19.320881-10.484933,45.961869-19.509411,59.627114-7.745917c21.024308,11.938252,63.404698,23.271746,84.852902,21.837908l77.08468-5.975554c-43.898766-22.155396-120.962806-77.816105-152.994543-114.041903L666.856569,748.409299Z" transform="translate(.000002 0.000003)" fill="#e5e9f0" stroke="#3f5787" stroke-width="4"/><path d="M190.467764,702.549141c15.675992,4.413046,34.495467,24.541107,41.208745,38.114244c6.031698,11.679465,20.862576,11.679465,25.287184-8.380986c0-17.749723,8.56001-24.394855,18.262967-29.733258l-32.795626-69.920422-51.96327,69.920422Z" fill="#e5e9f0" stroke="#3f5787" stroke-width="4"/></svg>