<svg xmlns="http://www.w3.org/2000/svg" viewBox="0 0 90 45" shape-rendering="geometricPrecision">
  <!-- Rock cluster — hand-drawn shapes with flat base, Nord palette -->
  <!-- Large rock -->
  <path d="M16,43 C12,36 14,28 20,22 C26,17 34,15 40,16 C46,17 52,22 54,28 C56,34 54,40 52,43Z" fill="#d8dee9" stroke="#4c566a" stroke-width="2.5" stroke-linecap="round" stroke-linejoin="round"/>
  <!-- Medium rock -->
  <path d="M48,43 C46,36 50,28 56,24 C60,21 66,20 72,22 C76,25 78,32 76,38 C74,42 70,43 64,43Z" fill="#e5e9f0" stroke="#4c566a" stroke-width="2.5" stroke-linecap="round" stroke-linejoin="round"/>
  <!-- Small rock -->
  <path d="M4,43 C2,38 6,32 12,30 C16,29 20,30 22,34 C23,38 20,42 16,43Z" fill="#d8dee9" stroke="#4c566a" stroke-width="2" stroke-linecap="round" stroke-linejoin="round"/>
</svg>
