<svg xmlns="http://www.w3.org/2000/svg" viewBox="0 0 90 50" shape-rendering="geometricPrecision">
  <!-- Rock cluster — hand-drawn angular shapes, Nord palette -->
  <!-- Large rock -->
  <path d="M18,48 C14,42 12,34 16,28 C20,22 28,18 36,16 C42,15 48,18 52,24 C56,30 56,40 52,48Z" fill="#d8dee9" stroke="#4c566a" stroke-width="2.5" stroke-linecap="round" stroke-linejoin="round"/>
  <!-- Medium rock -->
  <path d="M46,48 C44,40 48,32 54,26 C58,22 64,20 70,22 C76,24 78,32 76,40 C74,46 70,48 64,48Z" fill="#e5e9f0" stroke="#4c566a" stroke-width="2.5" stroke-linecap="round" stroke-linejoin="round"/>
  <!-- Small rock -->
  <path d="M6,48 C4,44 6,38 10,34 C14,31 18,32 20,36 C22,40 20,46 16,48Z" fill="#d8dee9" stroke="#4c566a" stroke-width="2" stroke-linecap="round" stroke-linejoin="round"/>
</svg>
