<svg xmlns="http://www.w3.org/2000/svg" viewBox="0 0 70 40" shape-rendering="geometricPrecision">
  <!-- Wild rose bush — Alberta Rocky Mountain inspiration, paper diorama style -->
  <!-- Woody stems -->
  <path d="M34,39 C32,30 28,24 22,18" fill="none" stroke="#5e81ac" stroke-width="1.5" stroke-linecap="round"/>
  <path d="M36,39 C37,28 40,22 46,16" fill="none" stroke="#5e81ac" stroke-width="1.5" stroke-linecap="round"/>
  <path d="M35,39 C34,32 30,26 26,22 C22,20 16,18 12,20" fill="none" stroke="#5e81ac" stroke-width="1.2" stroke-linecap="round"/>
  <path d="M35,39 C36,30 42,24 48,22 C52,21 56,22 58,24" fill="none" stroke="#5e81ac" stroke-width="1.2" stroke-linecap="round"/>
  <!-- Leaf clusters — compound leaves along stems -->
  <path d="M18,20 C16,16 18,14 22,15 C24,16 22,19 18,20Z" fill="#a3be8c" stroke="#3f5787" stroke-width="0.8" stroke-linejoin="round"/>
  <path d="M26,18 C25,14 28,12 30,14 C32,16 29,19 26,18Z" fill="#8fbcbb" stroke="#3f5787" stroke-width="0.8" stroke-linejoin="round"/>
  <path d="M42,18 C40,14 42,12 45,13 C47,15 45,18 42,18Z" fill="#a3be8c" stroke="#3f5787" stroke-width="0.8" stroke-linejoin="round"/>
  <path d="M50,20 C52,16 55,15 57,17 C58,20 55,22 50,20Z" fill="#8fbcbb" stroke="#3f5787" stroke-width="0.8" stroke-linejoin="round"/>
  <path d="M12,22 C9,19 10,16 13,16 C16,17 15,21 12,22Z" fill="#a3be8c" stroke="#3f5787" stroke-width="0.8" stroke-linejoin="round"/>
  <path d="M38,16 C37,12 40,10 42,12 C43,14 41,17 38,16Z" fill="#a3be8c" stroke="#3f5787" stroke-width="0.8" stroke-linejoin="round"/>
  <!-- Wild rose flowers — 5-petal pink blossoms -->
  <circle cx="21" cy="14" r="3" fill="#bf616a" stroke="#a3555e" stroke-width="0.8"/>
  <circle cx="21" cy="14" r="1" fill="#ebcb8b"/>
  <circle cx="46" cy="12" r="3.5" fill="#bf616a" stroke="#a3555e" stroke-width="0.8"/>
  <circle cx="46" cy="12" r="1.2" fill="#ebcb8b"/>
  <circle cx="34" cy="10" r="2.5" fill="#d08770" stroke="#b87460" stroke-width="0.8"/>
  <circle cx="34" cy="10" r="0.8" fill="#ebcb8b"/>
  <circle cx="56" cy="18" r="2.5" fill="#bf616a" stroke="#a3555e" stroke-width="0.8"/>
  <circle cx="56" cy="18" r="0.8" fill="#ebcb8b"/>
</svg>
