<svg xmlns="http://www.w3.org/2000/svg" viewBox="190 685 260 320" shape-rendering="geometricPrecision">
  <!-- Deciduous tree — extracted from grass layer, paper diorama style -->
  <g transform="translate(-41.566505 2.50289)">
<path d="M333.550311,989.801133h26.602089l1.900149-155.099683-27.077127-.475038-1.425111,155.574721Z" transform="translate(.000001 0.000001)" fill="#815020" stroke="#65381c" stroke-width="4"/><path d="" fill="none" stroke="#3f5787" stroke-width="8"/><path d="M335.335997,835.981728c-17.987474,9.152777-42.39861,3.638559-48.050364-12.866882-16.150025-1.185256-36.463843-9.380137-29.235638-32.894566-11.677166-16.007127-14.074889-43.358676-.338974-54.574765-4.945388-16.344702,6.929252-36.150178,29.124466-37.999185c4.861723-22.330925,36.687699-29.224417,64.828493-19.197771c13.67351-9.813568,37.374329-6.488335,45.138842,10.729725c19.359544-3.578473,40.750526,4.515439,36.99905,27.749288c20.050578,4.468134,15.0203,39.273261,3.699905,55.498575c10.861609,11.195564-1.476945,42.646049-19.239506,45.508832c2.199861,18.952372-41.657349,32.319754-52.632904,17.076286-8.701885,11.353627-23.735674,6.598814-30.29337.970463Z" transform="translate(-7.067939 6.934776)" fill="#a3be8c" stroke="#7a8e68" stroke-width="8"/><line x1="-200" y1="0" x2="200" y2="0" transform="matrix(0 0.097781-1 0 342.45457 882.019007)" fill="none" stroke="#65381c" stroke-width="3"/><path d="M-200,0c86.825741,13.923397,277.041962,17.161653,386.340681-.245431" transform="matrix(.097781 0 0 1 298.26786 778.726337)" fill="none" stroke="#7a8e68" stroke-width="3"/><path d="M-200,0c75.793346,14.013632,230.072879,19.505577,386.340681-.245431" transform="matrix(.097781 0 0 1 360.687564 804.630095)" fill="none" stroke="#7a8e68" stroke-width="3"/><path d="M-200,0c86.324393,11.782619,270.904631,14.62167,386.340681-.245431" transform="matrix(.097781 0 0 1.169903 389.754871 766.124754)" fill="none" stroke="#7a8e68" stroke-width="3"/><path d="M-200,0c55.237016,15.221462,243.007763,17.594011,386.340681-.245431" transform="matrix(.097781 0 0 1 300.78601 728.09601)" fill="none" stroke="#7a8e68" stroke-width="3"/><path d="M-200,0c93.626121,14.740558,287.224073,21.913738,386.340681-.245431" transform="matrix(.097781 0 0 1 384.200807 718.936739)" fill="none" stroke="#7a8e68" stroke-width="3"/><line x1="-200" y1="0" x2="200" y2="0" transform="matrix(0 0.082704-1 0 342.45457 949.866656)" fill="none" stroke="#65381c" stroke-width="3"/><line x1="-200" y1="0" x2="200" y2="0" transform="matrix(0 0.07014-1 0 356.024099 876.993255)" fill="none" stroke="#65381c" stroke-width="3"/><line x1="-200" y1="0" x2="200" y2="0" transform="matrix(0 0.065113-1 0 352.506074 960.92331)" fill="none" stroke="#65381c" stroke-width="3"/><line x1="-200" y1="0" x2="200" y2="0" transform="matrix(0 0.102729-1 0 350.586832 918.189151)" fill="none" stroke="#65381c" stroke-width="3"/>
  </g>
</svg>