<svg xmlns="http://www.w3.org/2000/svg" viewBox="0 0 100 160" shape-rendering="geometricPrecision">
  <!-- Deciduous tree variant B — rounder canopy, thinner trunk, paper diorama style -->
  <!-- Trunk — slightly thinner and angled -->
  <path d="M46,158 L44,90 L52,88 L53,158Z" fill="#815020" stroke="#65381c" stroke-width="3" stroke-linejoin="round"/>
  <!-- Trunk bark lines -->
  <line x1="48" y1="155" x2="47" y2="130" stroke="#65381c" stroke-width="2" stroke-linecap="round" opacity="0.6"/>
  <line x1="50" y1="145" x2="50" y2="110" stroke="#65381c" stroke-width="1.5" stroke-linecap="round" opacity="0.5"/>
  <line x1="47" y1="120" x2="46" y2="96" stroke="#65381c" stroke-width="1.8" stroke-linecap="round" opacity="0.7"/>
  <!-- Canopy — rounder, more oval shape with irregular bumps -->
  <path d="M48,88 C30,86 14,78 8,64 C4,52 8,38 18,28 C26,20 36,16 48,14 C60,12 72,16 80,26 C88,36 92,50 88,64 C84,76 72,84 56,88 C52,90 48,88 48,88Z" fill="#a3be8c" stroke="#7a8e68" stroke-width="4" stroke-linejoin="round"/>
  <!-- Canopy vein lines — different pattern from variant A -->
  <path d="M22,60 C30,54 40,52 50,52" fill="none" stroke="#7a8e68" stroke-width="2" stroke-linecap="round" opacity="0.6"/>
  <path d="M18,44 C28,38 42,36 54,38" fill="none" stroke="#7a8e68" stroke-width="1.5" stroke-linecap="round" opacity="0.7"/>
  <path d="M30,72 C38,68 48,66 58,68" fill="none" stroke="#7a8e68" stroke-width="1.8" stroke-linecap="round" opacity="0.6"/>
  <path d="M40,28 C48,24 58,26 66,32" fill="none" stroke="#7a8e68" stroke-width="1.5" stroke-linecap="round" opacity="0.5"/>
  <!-- Highlight details -->
  <path d="M26,36 C34,30 44,28 52,30" fill="none" stroke="#8fbcbb" stroke-width="1.5" stroke-linecap="round" opacity="0.5"/>
  <path d="M34,64 C42,60 52,58 60,62" fill="none" stroke="#8fbcbb" stroke-width="1.5" stroke-linecap="round" opacity="0.5"/>
</svg>
