<svg xmlns="http://www.w3.org/2000/svg" viewBox="0 0 80 140" shape-rendering="geometricPrecision">
  <!-- Pine/evergreen tree — hand-drawn paper diorama style, Nord palette -->
  <!-- Trunk -->
  <path d="M37,138 L37,80 L43,80 L43,138Z" fill="#815020" stroke="#65381c" stroke-width="2" stroke-linejoin="round"/>
  <!-- Trunk bark texture lines -->
  <line x1="39" y1="136" x2="39" y2="118" stroke="#65381c" stroke-width="1.5" stroke-linecap="round" opacity="0.7"/>
  <line x1="41" y1="130" x2="41" y2="100" stroke="#65381c" stroke-width="1" stroke-linecap="round" opacity="0.6"/>
  <line x1="38" y1="110" x2="38" y2="88" stroke="#65381c" stroke-width="1.2" stroke-linecap="round" opacity="0.5"/>
  <!-- Bottom tier — widest -->
  <path d="M40,85 C32,82 18,78 10,74 C14,70 22,62 28,56 C22,54 16,50 12,46 C18,40 26,32 34,26 C28,24 24,20 20,16 C28,8 34,4 40,2 C46,4 52,8 60,16 C56,20 52,24 46,26 C54,32 62,40 68,46 C64,50 58,54 52,56 C58,62 66,70 70,74 C62,78 48,82 40,85Z" fill="#a3be8c" stroke="#7a8e68" stroke-width="2.5" stroke-linejoin="round" stroke-linecap="round"/>
  <!-- Canopy vein/texture lines — matching deciduous style -->
  <path d="M24,70 C28,66 34,64 40,62" fill="none" stroke="#7a8e68" stroke-width="1.5" stroke-linecap="round" opacity="0.7"/>
  <path d="M20,60 C26,56 34,52 42,50" fill="none" stroke="#7a8e68" stroke-width="1.2" stroke-linecap="round" opacity="0.6"/>
  <path d="M26,46 C30,42 36,40 42,38" fill="none" stroke="#7a8e68" stroke-width="1.5" stroke-linecap="round" opacity="0.7"/>
  <path d="M30,32 C34,28 38,26 42,24" fill="none" stroke="#7a8e68" stroke-width="1.2" stroke-linecap="round" opacity="0.6"/>
  <!-- Snow/highlight detail lines -->
  <path d="M26,56 C30,52 36,50 40,48" fill="none" stroke="#8fbcbb" stroke-width="1.5" stroke-linecap="round" opacity="0.6"/>
  <path d="M22,72 C28,68 36,66 42,64" fill="none" stroke="#8fbcbb" stroke-width="1.5" stroke-linecap="round" opacity="0.6"/>
</svg>
