<svg xmlns="http://www.w3.org/2000/svg" viewBox="0 0 70 40" shape-rendering="geometricPrecision">
  <!-- Tuft bush — inspired by grass tufts, denser and bushier, paper diorama style -->
  <!-- Dense cluster of blades fanning out from center -->
  <path d="M12,38 C14,30 10,22 6,14" fill="none" stroke="#a3be8c" stroke-width="2.5" stroke-linecap="round"/>
  <path d="M18,38 C16,28 14,20 16,10" fill="none" stroke="#8fbcbb" stroke-width="2.5" stroke-linecap="round"/>
  <path d="M24,38 C22,26 20,18 24,8" fill="none" stroke="#a3be8c" stroke-width="2" stroke-linecap="round"/>
  <path d="M30,38 C29,24 32,16 35,6" fill="none" stroke="#8fbcbb" stroke-width="2.5" stroke-linecap="round"/>
  <path d="M36,38 C37,26 34,18 32,12" fill="none" stroke="#a3be8c" stroke-width="2" stroke-linecap="round"/>
  <path d="M42,38 C40,28 44,18 48,10" fill="none" stroke="#8fbcbb" stroke-width="2.5" stroke-linecap="round"/>
  <path d="M48,38 C50,30 46,22 44,16" fill="none" stroke="#a3be8c" stroke-width="2.5" stroke-linecap="round"/>
  <path d="M54,38 C56,28 52,20 56,12" fill="none" stroke="#8fbcbb" stroke-width="2" stroke-linecap="round"/>
  <path d="M60,38 C58,30 62,22 64,16" fill="none" stroke="#a3be8c" stroke-width="2.5" stroke-linecap="round"/>
  <!-- Small berry/flower dots nestled in the tufts -->
  <circle cx="20" cy="14" r="2" fill="#bf616a" stroke="#a3555e" stroke-width="0.8"/>
  <circle cx="38" cy="10" r="1.8" fill="#d08770" stroke="#b87460" stroke-width="0.8"/>
  <circle cx="52" cy="16" r="2" fill="#bf616a" stroke="#a3555e" stroke-width="0.8"/>
</svg>
